<svg width="394" height="1070" viewBox="0 0 394 1070" fill="none" xmlns="http://www.w3.org/2000/svg">
<path d="M197.839 186.701H197.341V187.199H197.839V186.701ZM197.839 172.816L198.169 172.444L197.341 171.707V172.816H197.839ZM198.02 172.977V173.475H199.329L198.351 172.605L198.02 172.977ZM194.211 172.977H193.713V173.475H194.211V172.977ZM194.211 172.594V172.096H193.713V172.594H194.211ZM198.222 172.594H198.719V172.096H198.222V172.594ZM198.222 186.701V187.199H198.719V186.701H198.222ZM197.839 186.701H198.336V172.816H197.839H197.341V186.701H197.839ZM197.839 172.816L197.508 173.188L197.689 173.349L198.02 172.977L198.351 172.605L198.169 172.444L197.839 172.816ZM198.02 172.977V172.479H194.211V172.977V173.475H198.02V172.977ZM194.211 172.977H194.709V172.594H194.211H193.713V172.977H194.211ZM194.211 172.594V173.092H198.222V172.594V172.096H194.211V172.594ZM198.222 172.594H197.724V186.701H198.222H198.719V172.594H198.222ZM198.222 186.701V186.203H197.839V186.701V187.199H198.222V186.701Z" fill="#B71C1C"/>
<path d="M222 179.343V179.923C222 193.573 210.94 204.633 197.29 204.633H196.71C183.06 204.633 172 193.573 172 179.923V179.343C172 165.693 183.06 154.633 196.71 154.633H197.29C210.94 154.633 222 165.693 222 179.343Z" stroke="#B71C1C" stroke-miterlimit="10"/>
<path d="M192.738 541.701H192.24V542.199H192.738V541.701ZM192.738 541.398L192.383 541.049L192.24 541.194V541.398H192.738ZM198.844 535.212L198.492 534.86L198.489 534.862L198.844 535.212ZM200.214 533.62L200.626 533.899L200.214 533.62ZM200.839 532.35L201.319 532.483L201.32 532.478L200.839 532.35ZM199.992 528.803L199.663 529.177L199.668 529.181L199.992 528.803ZM194.551 528.34L194.368 527.877H194.368L194.551 528.34ZM192.717 529.63L192.365 529.982L192.74 530.356L193.091 529.959L192.717 529.63ZM192.435 529.348L192.063 529.017L191.752 529.368L192.083 529.7L192.435 529.348ZM194.37 527.997L194.186 527.535L194.184 527.536L194.37 527.997ZM199.368 527.977L199.16 528.43L199.171 528.435L199.368 527.977ZM200.879 529.207L200.462 529.478V529.478L200.879 529.207ZM201.201 532.451L200.726 532.302L200.724 532.309L200.722 532.316L201.201 532.451ZM200.536 533.821L200.122 533.545L200.536 533.821ZM199.126 535.474L198.774 535.122L198.771 535.124L199.126 535.474ZM193.201 541.479L192.925 541.893L193.267 542.121L193.556 541.829L193.201 541.479ZM192.959 541.318V540.82H191.315L192.683 541.732L192.959 541.318ZM202.169 541.318H202.667V540.82H202.169V541.318ZM202.169 541.701V542.199H202.667V541.701H202.169ZM192.738 541.701H193.235V541.398H192.738H192.24V541.701H192.738ZM192.738 541.398L193.092 541.748L199.198 535.562L198.844 535.212L198.489 534.862L192.383 541.049L192.738 541.398ZM198.844 535.212L199.196 535.564C199.812 534.948 200.293 534.392 200.626 533.899L200.214 533.62L199.802 533.341C199.517 533.761 199.085 534.267 198.492 534.86L198.844 535.212ZM200.214 533.62L200.626 533.899C200.955 533.412 201.193 532.94 201.319 532.483L200.839 532.35L200.359 532.218C200.27 532.54 200.091 532.914 199.802 533.341L200.214 533.62ZM200.839 532.35L201.32 532.478C201.438 532.037 201.498 531.597 201.498 531.161H201H200.502C200.502 531.505 200.455 531.858 200.358 532.222L200.839 532.35ZM201 531.161H201.498C201.498 530.042 201.113 529.11 200.317 528.426L199.992 528.803L199.668 529.181C200.215 529.652 200.502 530.292 200.502 531.161H201ZM199.992 528.803L200.321 528.43C199.526 527.73 198.417 527.419 197.07 527.419V527.917V528.415C198.277 528.415 199.115 528.694 199.663 529.177L199.992 528.803ZM197.07 527.917V527.419C196.056 527.419 195.151 527.567 194.368 527.877L194.551 528.34L194.735 528.803C195.375 528.549 196.15 528.415 197.07 528.415V527.917ZM194.551 528.34L194.368 527.877C193.583 528.188 192.906 528.664 192.344 529.3L192.717 529.63L193.091 529.959C193.55 529.44 194.096 529.056 194.735 528.803L194.551 528.34ZM192.717 529.63L193.07 529.278L192.787 528.996L192.435 529.348L192.083 529.7L192.365 529.982L192.717 529.63ZM192.435 529.348L192.808 529.678C193.278 529.147 193.859 528.741 194.556 528.459L194.37 527.997L194.184 527.536C193.35 527.872 192.64 528.366 192.063 529.017L192.435 529.348ZM194.37 527.997L194.553 528.46C195.263 528.179 196.099 528.032 197.07 528.032V527.534V527.036C196 527.036 195.035 527.198 194.186 527.535L194.37 527.997ZM197.07 527.534V528.032C197.903 528.032 198.595 528.171 199.16 528.43L199.368 527.977L199.575 527.525C198.851 527.193 198.011 527.036 197.07 527.036V527.534ZM199.368 527.977L199.171 528.435C199.75 528.683 200.172 529.033 200.462 529.478L200.879 529.207L201.296 528.935C200.887 528.306 200.302 527.836 199.564 527.52L199.368 527.977ZM200.879 529.207L200.462 529.478C200.75 529.921 200.905 530.468 200.905 531.141H201.403H201.901C201.901 530.309 201.707 529.567 201.296 528.935L200.879 529.207ZM201.403 531.141H200.905C200.905 531.533 200.846 531.92 200.726 532.302L201.201 532.451L201.677 532.599C201.826 532.122 201.901 531.636 201.901 531.141H201.403ZM201.201 532.451L200.722 532.316C200.619 532.683 200.424 533.093 200.122 533.545L200.536 533.821L200.951 534.097C201.294 533.583 201.542 533.078 201.681 532.586L201.201 532.451ZM200.536 533.821L200.122 533.545C199.825 533.992 199.379 534.517 198.774 535.122L199.126 535.474L199.478 535.826C200.109 535.195 200.603 534.618 200.951 534.097L200.536 533.821ZM199.126 535.474L198.771 535.124L192.847 541.129L193.201 541.479L193.556 541.829L199.48 535.823L199.126 535.474ZM193.201 541.479L193.477 541.065L193.235 540.904L192.959 541.318L192.683 541.732L192.925 541.893L193.201 541.479ZM192.959 541.318V541.816H202.169V541.318V540.82H192.959V541.318ZM202.169 541.318H201.671V541.701H202.169H202.667V541.318H202.169ZM202.169 541.701V541.203H192.738V541.701V542.199H202.169V541.701Z" fill="#B71C1C"/>
<path d="M222 534.343V534.923C222 548.573 210.94 559.633 197.29 559.633H196.7C183.06 559.633 172 548.573 172 534.923V534.343C172 520.693 183.06 509.633 196.7 509.633H197.29C210.94 509.633 222 520.693 222 534.343Z" stroke="#B71C1C" stroke-miterlimit="10"/>
<path d="M194.265 896.196L194.065 896.653L194.068 896.654L194.265 896.196ZM192.33 894.766L191.978 894.414L191.674 894.718L191.931 895.063L192.33 894.766ZM192.592 894.504L192.992 894.207L192.648 893.744L192.24 894.152L192.592 894.504ZM194.386 895.834L194.181 896.288L194.184 896.289L194.386 895.834ZM200.33 895.41L200 895.038L199.996 895.041L200.33 895.41ZM200.31 890.252L199.98 890.624L199.983 890.627L200.31 890.252ZM196.179 889.284H195.681V889.782H196.179V889.284ZM196.179 888.982L195.783 888.681L195.681 888.814V888.982H196.179ZM200.854 882.836L201.333 882.699L201.06 881.743L200.458 882.534L200.854 882.836ZM200.895 882.977V883.475H201.555L201.373 882.84L200.895 882.977ZM192.773 882.977H192.276V883.475H192.773V882.977ZM192.773 882.594V882.096H192.276V882.594H192.773ZM201.298 882.594H201.796V882.096H201.298V882.594ZM201.298 882.896L201.694 883.198L201.796 883.064V882.896H201.298ZM196.623 889.042L196.144 889.179L196.417 890.135L197.019 889.344L196.623 889.042ZM196.582 888.901V888.404H195.922L196.103 889.038L196.582 888.901ZM200.592 889.99L200.259 890.36L200.262 890.362L200.592 889.99ZM201.278 894.887L200.853 894.626L200.849 894.633L201.278 894.887ZM199.706 896.277L199.918 896.728L199.921 896.726L199.706 896.277ZM197.167 896.761V896.263C196.165 896.263 195.266 896.086 194.462 895.739L194.265 896.196L194.068 896.654C195.01 897.06 196.045 897.259 197.167 897.259V896.761ZM194.265 896.196L194.464 895.74C193.66 895.389 193.094 894.959 192.73 894.468L192.33 894.766L191.931 895.063C192.426 895.728 193.149 896.252 194.065 896.653L194.265 896.196ZM192.33 894.766L192.682 895.118L192.944 894.856L192.592 894.504L192.24 894.152L191.978 894.414L192.33 894.766ZM192.592 894.504L192.193 894.801C192.648 895.413 193.324 895.902 194.181 896.288L194.386 895.834L194.59 895.38C193.835 895.04 193.316 894.643 192.992 894.207L192.592 894.504ZM194.386 895.834L194.184 896.289C195.076 896.684 196.073 896.876 197.167 896.876V896.378V895.88C196.191 895.88 195.334 895.709 194.587 895.378L194.386 895.834ZM197.167 896.378V896.876C198.632 896.876 199.827 896.538 200.665 895.779L200.33 895.41L199.996 895.041C199.41 895.573 198.496 895.88 197.167 895.88V896.378ZM200.33 895.41L200.661 895.783C201.505 895.032 201.917 894.031 201.917 892.831H201.419H200.921C200.921 893.781 200.607 894.499 200 895.038L200.33 895.41ZM201.419 892.831H201.917C201.917 891.628 201.496 890.626 200.638 889.876L200.31 890.252L199.983 890.627C200.602 891.167 200.921 891.885 200.921 892.831H201.419ZM200.31 890.252L200.641 889.879C199.784 889.117 198.503 888.786 196.905 888.786V889.284V889.782C198.396 889.782 199.386 890.096 199.98 890.624L200.31 890.252ZM196.905 889.284V888.786H196.179V889.284V889.782H196.905V889.284ZM196.179 889.284H196.677V888.982H196.179H195.681V889.284H196.179ZM196.179 888.982L196.575 889.283L201.251 883.137L200.854 882.836L200.458 882.534L195.783 888.681L196.179 888.982ZM200.854 882.836L200.376 882.972L200.416 883.114L200.895 882.977L201.373 882.84L201.333 882.699L200.854 882.836ZM200.895 882.977V882.479H192.773V882.977V883.475H200.895V882.977ZM192.773 882.977H193.271V882.594H192.773H192.276V882.977H192.773ZM192.773 882.594V883.092H201.298V882.594V882.096H192.773V882.594ZM201.298 882.594H200.8V882.896H201.298H201.796V882.594H201.298ZM201.298 882.896L200.901 882.595L196.226 888.741L196.623 889.042L197.019 889.344L201.694 883.198L201.298 882.896ZM196.623 889.042L197.101 888.906L197.061 888.765L196.582 888.901L196.103 889.038L196.144 889.179L196.623 889.042ZM196.582 888.901V889.399H196.884V888.901V888.404H196.582V888.901ZM196.884 888.901V889.399C198.491 889.399 199.583 889.751 200.259 890.36L200.592 889.99L200.925 889.62C199.99 888.777 198.61 888.404 196.884 888.404V888.901ZM200.592 889.99L200.262 890.362C200.967 890.986 201.324 891.794 201.324 892.831H201.822H202.32C202.32 891.531 201.857 890.444 200.922 889.617L200.592 889.99ZM201.822 892.831H201.324C201.324 893.53 201.162 894.123 200.853 894.626L201.278 894.887L201.702 895.147C202.119 894.468 202.32 893.691 202.32 892.831H201.822ZM201.278 894.887L200.849 894.633C200.556 895.129 200.112 895.529 199.49 895.828L199.706 896.277L199.921 896.726C200.697 896.353 201.301 895.826 201.706 895.14L201.278 894.887ZM199.706 896.277L199.494 895.827C198.893 896.109 198.124 896.263 197.167 896.263V896.761V897.259C198.224 897.259 199.148 897.09 199.918 896.727L199.706 896.277Z" fill="#B71C1C"/>
<path d="M222 889.343V889.923C222 903.573 210.94 914.633 197.3 914.633H196.71C183.07 914.633 172 903.573 172 889.923V889.343C172 875.693 183.07 864.633 196.71 864.633H197.3C210.94 864.633 222 875.693 222 889.343Z" stroke="#B71C1C" stroke-miterlimit="10"/>
<path d="M197 155V0" stroke="#B71C1C" stroke-miterlimit="10"/>
<path d="M197 510V205" stroke="#B71C1C" stroke-miterlimit="10"/>
<path d="M197 865V560" stroke="#B71C1C" stroke-miterlimit="10"/>
<path d="M197 1070V915" stroke="#B71C1C" stroke-miterlimit="10"/>
<path d="M197 722C202.523 722 207 717.523 207 712C207 706.477 202.523 702 197 702C191.477 702 187 706.477 187 712C187 717.523 191.477 722 197 722Z" fill="#B71C1C"/>
<path d="M197 367C202.523 367 207 362.523 207 357C207 351.477 202.523 347 197 347C191.477 347 187 351.477 187 357C187 362.523 191.477 367 197 367Z" fill="#B71C1C"/>
<path d="M1 457L393 257" stroke="#B71C1C" stroke-width="0.75" stroke-miterlimit="10" stroke-dasharray="12 12"/>
<path d="M393 812L1 612" stroke="#B71C1C" stroke-width="0.75" stroke-miterlimit="10" stroke-dasharray="12 12"/>
</svg>
