<svg width="31" height="30" viewBox="0 0 31 30" fill="none" xmlns="http://www.w3.org/2000/svg">
<circle cx="15.5" cy="15" r="15" fill="white"/>
<path d="M15.5 0C7.2164 0 0.5 6.7164 0.5 15C0.5 23.2836 7.2164 30 15.5 30C23.7836 30 30.5 23.2836 30.5 15C30.5 6.7164 23.7836 0 15.5 0ZM22.8668 10.2768L20.4044 21.8771C20.2232 22.7003 19.7336 22.8999 19.0496 22.5123L15.2996 19.7496L13.4924 21.4922C13.3172 21.7178 13.046 21.8607 12.7424 21.8607C12.74 21.8607 12.7388 21.8607 12.7364 21.8607L13.0028 18.0434L19.9532 11.7662C20.2532 11.4998 19.886 11.3486 19.4876 11.615L10.9016 17.0221L7.20203 15.8678C6.40163 15.6146 6.38002 15.0672 7.37122 14.6748L21.8288 9.10195C22.5008 8.85715 23.0864 9.26212 22.8692 10.2785L22.8668 10.2768Z" fill="#005F99"/>
</svg>
