<svg width="31" height="30" viewBox="0 0 31 30" fill="none" xmlns="http://www.w3.org/2000/svg">
<circle cx="15.5" cy="15" r="15" fill="white"/>
<path d="M15.5 0C7.208 0 0.5 6.72 0.5 15C0.5 23.292 7.208 30 15.5 30C23.78 30 30.5 23.292 30.5 15C30.5 6.72 23.78 0 15.5 0ZM18.536 22.5L14.444 16.68L9.32001 22.5H8L13.856 15.84L8 7.5H12.464L16.34 13.02L21.188 7.5H22.52L16.928 13.86L23 22.5H18.536Z" fill="#1A1A1A"/>
<path d="M21.188 21.576H19.16L15.116 15.924L14.528 15.084L9.8 8.48401H11.84L15.644 13.812L16.232 14.64L21.188 21.576Z" fill="#1A1A1A"/>
</svg>
