<svg width="31" height="30" viewBox="0 0 31 30" fill="none" xmlns="http://www.w3.org/2000/svg">
<circle cx="15.5" cy="15" r="15" fill="white"/>
<path d="M13.502 17.889L18.412 15.0061L13.502 12.123V17.889Z" fill="#B71C1C"/>
<path d="M15.5 0C7.215 0 0.5 6.715 0.5 15C0.5 23.285 7.215 30 15.5 30C23.785 30 30.5 23.285 30.5 15C30.5 6.715 23.785 0 15.5 0ZM23 17.684C23 20.268 20.416 20.2679 20.416 20.2679H10.584C7.99998 20.2679 8 17.684 8 17.684V12.323C8 9.739 10.584 9.73901 10.584 9.73901H20.416C23 9.73901 23 12.323 23 12.323V17.684Z" fill="#B71C1C"/>
</svg>
