<svg width="125" height="150" viewBox="0 0 125 150" fill="none" xmlns="http://www.w3.org/2000/svg">
<path d="M34.4628 49.7508C31.8999 52.4811 30.002 55.7335 28.8672 59.2408C25.5503 60.698 21.2245 67.9844 21.2245 67.9844C21.9125 54.5403 30.845 50.8948 34.4628 49.7508Z" fill="#B71C1C"/>
<path d="M44.5931 44.0707C42.8241 44.8769 41.1933 45.8627 39.713 46.9975C39.0174 46.9223 38.3432 46.8762 37.6891 46.8593C27.7615 46.5783 22.5728 52.3736 22.4162 52.5502C30.9356 35.023 44.5931 44.0707 44.5931 44.0707Z" fill="#B71C1C"/>
<path d="M81.0433 50.1163C81.0433 50.1163 79.9868 51.1605 78.5372 50.3743C77.0876 49.5881 77.5759 47.5288 77.5759 47.5288C80.0682 48.2475 81.0433 50.1163 81.0433 50.1163Z" fill="#B71C1C"/>
<path d="M79.5906 36.64C77.7909 35.3363 75.6396 33.9558 73.2333 32.7473C72.7327 32.4955 72.2198 32.2513 71.6977 32.0164C71.6977 32.0164 71.6977 32.0148 71.6962 32.0133C71.6962 32.0133 71.6777 31.9949 71.6424 31.9595C71.5856 31.8966 71.5226 31.8321 71.4597 31.7676C71.452 31.7599 71.4459 31.7522 71.4382 31.7446C70.8193 31.0704 69.2101 29.1417 68.0031 26.1243C67.2629 24.2724 66.6733 22.0105 66.555 19.3785C66.555 19.3785 69.0841 23.7134 71.4689 26.5681C73.8168 29.3782 79.4171 36.4204 79.5906 36.64Z" fill="#B71C1C"/>
<path d="M67.4948 30.255C60.795 27.3159 58.8141 25.2214 58.8141 25.2214C58.8141 25.2214 55.2639 22.3498 51.8902 17.7523C51.2253 16.8448 50.5665 15.8712 49.9446 14.8393C47.4953 10.7838 45.5943 5.82541 45.9782 0.5C45.9782 0.5 48.9188 8.37755 53.7928 13.9947C53.974 14.202 54.1567 14.4078 54.3425 14.609C54.969 15.2877 55.7107 16.0632 56.5369 16.9077C59.0675 19.4983 62.3659 22.7291 65.4049 25.7189C65.5446 26.1427 65.6982 26.5635 65.864 26.9796C66.3692 28.2419 66.942 29.3368 67.4948 30.255Z" fill="#B71C1C"/>
<path d="M89.3093 76.9445C88.1715 77.8121 84.6749 77.7307 82.2641 75.7514C81.0095 74.7225 79.8639 72.4314 78.6339 69.9069C77.9859 70.3998 77.3272 70.9296 76.673 71.4886L76.6684 71.4917L76.6653 71.4947C76.6269 71.527 76.587 71.5608 76.5486 71.593C76.5609 71.6114 76.5717 71.6299 76.5824 71.6483C76.6392 71.7435 76.696 71.8402 76.7513 71.937C76.7528 71.94 76.7544 71.9416 76.7544 71.9431C76.822 72.0583 76.8864 72.175 76.9494 72.2932C76.954 72.3024 76.9586 72.3117 76.9648 72.3209C77.0216 72.4268 77.0769 72.5359 77.1321 72.6449C77.1966 72.7723 77.2611 72.9013 77.3226 73.0334C77.3226 73.0334 79.5261 77.224 71.7576 76.6466C71.7576 76.6466 73.9719 79.7086 80.2586 77.8121C80.2586 77.8121 80.5826 80.1155 79.1207 81.9306C77.6573 83.7456 76.7621 84.8574 76.7621 86.2118C76.7621 87.5677 77.0876 88.9221 79.282 90.711C79.282 90.711 77.6297 87.6214 79.5261 86.1857C81.4241 84.7484 86.2197 82.1747 86.9783 78.9761C86.9783 78.9761 88.0624 80.5762 86.1936 83.4738C86.2919 83.4093 89.5504 81.2134 89.3093 76.9445Z" fill="#B71C1C"/>
<path d="M40.037 33.0959C37.7505 32.5062 34.231 31.333 30.8005 29.1402C29.8868 28.5567 28.9793 27.901 28.104 27.1639C26.6144 25.9124 25.2171 24.4275 24.0316 22.6692C24.1283 22.7368 26.186 24.2064 29.79 25.6022C30.8788 26.023 32.1072 26.4376 33.4662 26.8061C34.4935 27.0841 35.5946 27.3359 36.7647 27.5432C37.7613 27.7198 38.7195 27.9547 39.6362 28.2327L39.7944 31.4835C39.799 31.5756 39.8343 32.1929 40.037 33.0959Z" fill="#B71C1C"/>
<path d="M42.8763 40.9842C35.5654 37.979 28.9792 38.8896 28.9792 38.8896C32.5357 36.1455 36.4714 35.4684 39.366 35.4315C41.6693 37.7103 42.8763 40.9842 42.8763 40.9842Z" fill="#B71C1C"/>
<path d="M26.5208 83.265C26.5192 83.2635 26.5177 83.2604 26.5162 83.2573C26.507 83.2435 26.4901 83.2112 26.4624 83.1621C26.4578 83.1529 26.4517 83.1421 26.4455 83.1314C25.8743 82.0519 22.3501 74.6596 27.7093 65.1021C27.4974 67.8677 27.7416 70.6962 28.4833 73.4741C26.3534 78.9623 26.5162 83.1652 26.5208 83.265Z" fill="#B71C1C"/>
<path d="M78.6416 64.7873C78.2715 65.0407 77.9045 65.3032 77.5498 65.5689C77.0001 64.6982 76.4135 63.846 75.7685 63.0214C76.7974 63.3868 77.7617 64.0164 78.6416 64.7873Z" fill="#B71C1C"/>
<path d="M91.8477 73.2868C91.3962 74.1559 90.5378 74.7778 89.6426 75.1663C88.087 75.8358 86.4501 75.7851 84.9836 75.2231H84.982C83.5693 74.6811 82.3117 73.666 81.4318 72.3639C81.0202 71.7942 80.6717 71.1078 80.3415 70.4874C80.105 70.0482 79.8701 69.6106 79.6321 69.1745C79.6766 69.1437 79.7211 69.1115 79.7657 69.0808C80.2678 68.7261 80.7884 68.3821 81.3181 68.0535C81.3565 68.0289 81.3949 68.0043 81.4348 67.9813C81.6191 68.247 81.7942 68.5096 81.96 68.7691C82.4453 69.5123 82.823 70.3246 83.319 71.0602C83.514 71.3611 83.7275 71.6468 83.9578 71.9139C84.6442 72.7078 85.6577 73.1685 86.7034 73.0733C87.1488 73.0334 87.5879 72.9228 87.9933 72.7324C88.322 72.5727 88.6137 72.3347 88.884 72.0399C88.7872 72.4207 88.6275 72.8169 88.3757 73.167C88.1285 73.5017 87.8336 73.7996 87.5081 74.0561C88.1008 74.1805 88.7227 74.2096 89.3615 74.1359C90.203 74.0438 91.0614 73.8089 91.8477 73.2868Z" fill="#B71C1C"/>
<path d="M37.2361 56.9881C37.2115 57.051 37.1854 57.114 37.1578 57.1769C36.7647 58.0829 36.2441 58.8522 35.679 59.4189C35.6145 59.4834 35.55 59.5463 35.484 59.6047C35.3565 59.7229 35.2275 59.8274 35.097 59.921C34.8114 60.1283 34.5227 60.2819 34.2402 60.374C33.8271 60.5076 33.4294 60.5107 33.0762 60.3571C32.6017 60.1514 32.2777 59.6953 32.1118 59.0841C32.0827 58.9766 32.0581 58.8661 32.0381 58.7509C31.8723 57.7712 32.055 56.4859 32.6109 55.2037C33.5875 52.9556 35.3083 52.2474 36.6019 51.9866C36.1996 53.0569 36.1074 54.1472 36.2948 55.0962C36.3992 55.6245 36.5896 56.1082 36.8614 56.5197C36.972 56.6886 37.0979 56.8452 37.2361 56.9881Z" fill="#B71C1C"/>
<path d="M36.2441 65.7347C36.1366 66.2154 35.9831 66.6607 35.7911 67.0569C35.6422 67.3671 35.4686 67.6465 35.2751 67.8907C35.2751 67.8907 35.1016 68.0934 35.1016 68.0919V68.0934C34.7408 68.488 34.3216 68.7614 33.8624 68.8796C33.7211 68.918 33.5768 68.9395 33.4294 68.9456C32.5126 68.984 31.6619 68.4082 31.0385 67.4546C30.802 67.0937 30.5978 66.6761 30.435 66.2185C30.2031 65.5612 30.0572 64.818 30.0234 64.0272C29.959 62.4793 30.3413 61.0758 30.9955 60.1206C31.4669 60.893 32.1303 61.452 32.9472 61.6823C33.3756 61.8036 33.8148 61.8267 34.2524 61.7607C34.3246 62.5714 34.512 63.3177 34.7976 63.9565C34.9819 64.3681 35.206 64.7351 35.4686 65.0468C35.699 65.3217 35.9585 65.5535 36.2441 65.7347Z" fill="#B71C1C"/>
<path d="M41.7016 57.59V57.5915C41.1396 59.2868 40.7772 60.9637 40.6175 62.6175C40.6067 62.7327 40.596 62.8463 40.5883 62.9599C40.4378 63.1964 40.2766 63.4145 40.1076 63.611C39.3444 64.5032 38.4216 64.9654 37.5524 64.7735C37.5509 64.7719 37.5494 64.7719 37.5478 64.7719C37.1071 64.6737 36.7278 64.4157 36.4192 64.0395V64.0379C36.3439 63.9473 36.2733 63.849 36.2073 63.7446C36.0353 63.4713 35.8925 63.1534 35.7834 62.8033C35.6452 62.358 35.5592 61.8574 35.5347 61.3215C35.6345 61.2677 35.7343 61.2078 35.8326 61.1449C36.0353 61.0159 36.2334 60.8685 36.4253 60.7026C37.2561 59.9932 37.9716 58.9705 38.4415 57.7436C39.4519 58.0768 40.599 57.848 41.6202 57.1877C41.6524 57.3182 41.6801 57.4518 41.7016 57.59Z" fill="#B71C1C"/>
<path d="M38.377 75.1049C38.374 75.4028 38.3525 75.6884 38.3125 75.9571C38.2419 76.4209 38.1144 76.834 37.9302 77.181C37.7306 77.5588 37.4649 77.8551 37.1332 78.0486C37.0764 78.0824 37.0165 78.1131 36.9551 78.1407C36.0998 78.5216 35.0295 78.2037 34.0006 77.3806C33.6689 77.1165 33.3418 76.8002 33.0271 76.4378C32.4021 75.7191 31.8278 74.8208 31.3702 73.795C30.6454 72.1673 30.3536 70.5365 30.4734 69.2374C31.278 70.0666 32.2884 70.5427 33.3664 70.4981C33.6612 70.4858 33.9469 70.4352 34.2217 70.3507C34.535 71.249 35.0003 72.0368 35.57 72.6633C35.8602 72.9842 36.1796 73.2637 36.5205 73.4925C37.0764 73.8672 37.6876 74.1083 38.3264 74.1835C38.3617 74.5014 38.3786 74.8101 38.377 75.1049Z" fill="#B71C1C"/>
<path d="M41.4497 70.3753C41.0566 71.507 40.361 72.3547 39.4903 72.6787C39.3045 72.7478 39.111 72.7938 38.9099 72.8123C38.615 72.8399 38.3248 72.8092 38.0423 72.7263C37.4526 72.5543 36.8998 72.155 36.4361 71.5884C36.2226 71.3289 36.0276 71.0325 35.8556 70.707V70.7054C35.6913 70.3968 35.55 70.0605 35.4333 69.7027C35.7097 69.4846 35.9662 69.2267 36.198 68.9349C36.4284 68.6447 36.6341 68.3207 36.8107 67.9675C37.0871 67.4239 37.2929 66.8127 37.4173 66.157C38.4907 66.2876 39.5932 65.787 40.5269 64.8503C40.5437 66.0449 40.6743 67.2197 40.9138 68.3713V68.3729C41.0336 68.9549 41.1825 69.5276 41.3607 70.0973C41.3899 70.191 41.419 70.2832 41.4497 70.3753Z" fill="#B71C1C"/>
<path d="M43.5704 80.1954C43.4859 80.2552 43.3953 80.309 43.3001 80.3551C43.0467 80.4794 42.7765 80.5455 42.4909 80.5578C42.2298 80.57 41.9565 80.5378 41.6785 80.4641C41.3254 80.3719 40.9614 80.2122 40.5975 79.9957V79.9942C39.9403 79.598 39.283 79.0084 38.6872 78.2636C39.0588 77.8628 39.3398 77.3637 39.5257 76.794C39.6239 76.4977 39.6961 76.1813 39.7422 75.8496C39.8205 75.2953 39.8251 74.6964 39.7575 74.0745C40.7249 73.8027 41.5557 73.144 42.1684 72.2349C42.6014 73.2069 43.122 74.1574 43.727 75.0926C44.0188 75.541 44.329 75.9848 44.6591 76.4255C44.6637 76.4301 44.6668 76.4347 44.6714 76.4408C44.868 78.13 44.4917 79.5489 43.5704 80.1954Z" fill="#B71C1C"/>
<path d="M42.9915 85.2014C42.8594 85.4378 42.689 85.639 42.477 85.7987C41.7584 86.3408 40.705 86.3039 39.5702 85.8018C39.1817 85.6329 38.784 85.4071 38.3862 85.1307C37.5447 84.5503 36.7063 83.7472 35.9662 82.7675C34.9619 81.4361 34.32 80.0188 34.0851 78.778C35.3765 79.3892 36.6848 79.4936 37.7551 78.9623C38.6734 80.1677 39.7775 81.0476 40.8908 81.4852C41.3238 81.6572 41.7599 81.7601 42.1853 81.7893C42.4555 81.8092 42.7227 81.7985 42.9823 81.757C43.0114 81.843 43.0375 81.9275 43.0621 82.012C43.1235 82.2223 43.1742 82.4296 43.2157 82.6323C43.2802 82.9579 43.3185 83.2727 43.3278 83.5706C43.3462 84.2048 43.2372 84.7622 42.9915 85.2014Z" fill="#B71C1C"/>
<path d="M55.5188 92.7703C55.1134 92.9945 54.6466 93.0636 54.149 92.9945C54.0845 92.9868 54.02 92.9745 53.954 92.9607C53.5793 92.8839 53.1908 92.7334 52.7993 92.5154C52.0622 92.1084 51.3189 91.465 50.6525 90.6404V90.6389C50.7968 90.0062 50.7707 89.306 50.5895 88.5797C50.4698 88.1052 50.284 87.6199 50.0367 87.1362C49.9983 87.0594 49.9569 86.9842 49.9139 86.9074C50.9842 86.0613 51.4771 84.604 51.3758 82.9548C53.0511 84.343 54.5636 85.7327 55.9134 87.1239C56.0378 87.2483 56.1576 87.3742 56.2774 87.5001C56.391 87.8272 56.4847 88.1512 56.5568 88.4676C57.0068 90.4316 56.6597 92.1361 55.5188 92.7703Z" fill="#B71C1C"/>
<path d="M49.0785 90.8001C48.9864 91.0074 48.862 91.1947 48.7069 91.3575C48.1526 91.9395 47.2819 92.1269 46.2761 91.9687C45.7233 91.8827 45.1305 91.6907 44.5286 91.4036C43.6856 91.0013 42.8241 90.4085 42.0256 89.6484C41.2286 88.8883 40.596 88.0576 40.1537 87.2376C41.373 87.4817 42.4939 87.2974 43.3109 86.6156C43.5166 86.4436 43.6948 86.2471 43.8468 86.029C44.6914 86.7431 45.6112 87.2391 46.5156 87.4771H46.5172C46.7982 87.5523 47.0761 87.6015 47.351 87.6245C47.824 87.666 48.2831 87.6291 48.7161 87.5109C48.7791 87.6414 48.8374 87.7704 48.8897 87.8994C49.338 88.9973 49.421 90.0338 49.0785 90.8001Z" fill="#B71C1C"/>
<path d="M49.2275 85.8002C49.2183 85.8079 49.2075 85.8141 49.1983 85.8202V85.8217C49.0033 85.9645 48.7868 86.069 48.5534 86.1365C48.3645 86.1934 48.1649 86.2241 47.956 86.2333C47.6381 86.2471 47.3003 86.2087 46.9533 86.1212V86.1196C46.121 85.9093 45.2304 85.4148 44.3981 84.6869C44.4933 84.214 44.5148 83.6996 44.4626 83.1575C44.438 82.8842 44.395 82.6047 44.332 82.3206C44.266 82.0089 44.1754 81.691 44.0648 81.3701C45.1259 80.7528 45.7816 79.5381 45.9782 78.0409C46.8519 79.0298 47.8316 79.9957 48.9158 80.9355C49.2106 81.1919 49.5131 81.4453 49.8248 81.6987C49.874 81.8415 49.917 81.9828 49.9553 82.124C50.3776 83.6919 50.155 85.1 49.2275 85.8002Z" fill="#B71C1C"/>
<path d="M62.2431 96.0702C62.2523 96.3942 62.24 96.706 62.2062 97.0008C62.0604 98.2615 61.5183 99.2443 60.6154 99.6466C60.5448 99.6773 60.4741 99.705 60.4019 99.7295C60.3374 99.7495 60.2729 99.7679 60.2069 99.7818C59.9781 99.834 59.7401 99.8478 59.4975 99.8278C59.2687 99.8109 59.0337 99.7633 58.7973 99.6865C57.73 99.3441 56.6213 98.4243 55.7384 97.1175C56.0071 96.2253 56.0516 95.198 55.8689 94.1308C55.8643 94.0939 55.8581 94.0571 55.8489 94.0202C56.0501 93.9465 56.2436 93.8528 56.4263 93.7361C56.6259 93.6087 56.8071 93.4613 56.9684 93.2939C57.8206 92.4186 58.1661 91.0182 58.0064 89.4273C59.7877 91.5403 61.1958 93.6517 62.2262 95.757C62.2339 95.8629 62.24 95.9674 62.2431 96.0702Z" fill="#B71C1C"/>
<path d="M63.986 107.53C63.8724 107.567 63.7557 107.593 63.6359 107.606C62.0051 107.781 60.4311 105.608 60.0841 102.727C60.0841 102.727 60.0841 102.727 60.0841 102.725C60.0779 102.682 60.0733 102.639 60.0687 102.595C60.0119 102.068 60.0012 101.555 60.0288 101.069C60.1486 101.061 60.2668 101.047 60.385 101.026C60.6538 100.98 60.9148 100.9 61.1682 100.788C62.1832 100.335 62.8927 99.4101 63.2627 98.2216C63.8079 99.7725 64.1457 101.32 64.2747 102.862C64.4206 104.596 64.2778 106.161 63.986 107.53Z" fill="#B71C1C"/>
<path d="M54.2918 97.2204C54.1582 97.5997 53.9663 97.9268 53.716 98.1832C53.5763 98.326 53.4196 98.4473 53.2446 98.5441C53.0511 98.65 52.8469 98.7237 52.6303 98.7652C52.2357 98.8404 51.8073 98.8082 51.3635 98.6807C49.9676 98.2815 48.4274 96.9317 47.3556 95.003C47.2097 94.7404 47.0777 94.4763 46.9594 94.2137C46.7966 93.8498 46.6584 93.4858 46.5479 93.1265C48.0036 93.2448 49.2782 92.847 50.0413 91.9042C50.9658 92.8348 51.9869 93.515 52.9866 93.8866C52.9989 93.9527 53.0127 94.0187 53.0296 94.0847C53.0726 94.0387 53.1171 93.9926 53.1617 93.9496C53.5594 94.0863 53.9525 94.1723 54.3348 94.2045C54.3625 94.3227 54.387 94.441 54.407 94.5577C54.5882 95.5635 54.5498 96.4894 54.2918 97.2204Z" fill="#B71C1C"/>
<path d="M58.6621 103.268C58.1569 104.092 57.4521 104.63 56.6305 104.717C55.746 104.812 54.8846 104.37 54.189 103.567C53.4427 102.709 52.8868 101.439 52.6994 99.9752C53.177 99.8877 53.6315 99.7142 54.0461 99.4501C54.1199 99.404 54.1905 99.3549 54.2596 99.3042C54.5959 99.0554 54.8846 98.756 55.1226 98.4135C56.1407 99.6743 57.3692 100.551 58.59 100.904C58.5316 101.52 58.5347 102.17 58.6053 102.836C58.6207 102.982 58.6391 103.125 58.6621 103.268Z" fill="#B71C1C"/>
<path d="M52.8945 104.299C51.3236 104.557 49.1353 103.363 47.5153 101.218C46.1471 99.404 45.5421 97.3862 45.797 95.9351C45.8523 96.0257 45.9075 96.1163 45.9644 96.2069C47.3694 98.4181 49.4624 99.8002 51.4019 100.014C51.4049 100.055 51.4095 100.098 51.4142 100.14C51.5877 101.761 52.1297 103.208 52.8945 104.299Z" fill="#B71C1C"/>
<path d="M64.1856 81.9997C61.8515 84.7883 56.7472 84.2662 56.7472 84.2662C55.2577 82.8151 53.607 81.3701 51.7965 79.9343C50.975 79.2832 50.2118 78.6198 49.507 77.9426C49.507 77.9426 53.8849 78.864 57.2862 76.4255C59.479 78.3588 61.8684 80.1462 64.1856 81.9997Z" fill="#B71C1C"/>
<path d="M56.4355 75.6562C51.9347 78.1131 47.0393 75.154 46.9302 75.088C46.9287 75.0865 46.9287 75.0865 46.9287 75.0865C45.129 72.7478 43.965 70.2831 43.4475 67.708C43.5397 67.8201 46.9134 71.9139 52.1267 70.8191C53.3551 72.5896 54.8293 74.1728 56.4355 75.6562Z" fill="#B71C1C"/>
<path d="M51.3881 69.6797C49.9477 69.7518 48.7223 69.4294 47.6904 68.898C47.5998 68.852 47.5092 68.8044 47.4216 68.7537C44.4103 67.0492 43.1604 63.611 43.1604 63.611C43.188 63.0966 43.3063 62.381 43.4353 61.7177L44.3443 61.3906C46.0703 60.7687 47.7902 60.4738 48.601 60.3602C48.7085 62.6037 49.1338 64.6015 49.8064 66.4104C50.0214 66.9893 50.2609 67.5467 50.5235 68.0888C50.7892 68.6355 51.0779 69.1652 51.3881 69.6797Z" fill="#B71C1C"/>
<path d="M75.7808 99.255C73.3715 93.0344 62.2707 90.711 62.2707 90.711C61.0853 88.9912 59.6756 87.2775 58.0448 85.573C58.0448 85.573 62.4182 85.6943 65.1914 82.8135C70.3141 87.0149 74.861 91.7015 75.7808 99.255Z" fill="#B71C1C"/>
<path d="M75.9497 101.902C76.0618 115.343 63.0401 115.5 63.0401 115.5C63.2228 115.299 67.5102 110.5 66.8821 102.713C66.6241 99.5192 65.5938 96.3251 63.7987 93.1465C63.7987 93.1465 71.1234 92.7933 75.939 101.359C75.9451 101.538 75.9482 101.72 75.9497 101.902Z" fill="#B71C1C"/>
<path d="M43.9666 51.5152C43.8391 52.26 43.5458 53.0677 43.0913 53.8555C42.7949 54.3683 42.4556 54.8275 42.0962 55.2175C41.7999 55.5385 41.4897 55.8133 41.1749 56.0375C40.3364 56.6364 39.4704 56.8667 38.7932 56.5995C38.7241 56.5734 38.658 56.5412 38.5936 56.5043C38.2235 56.2909 37.967 55.93 37.8227 55.4709C37.7874 55.3603 37.7597 55.2452 37.7382 55.1238V55.1223C37.6722 54.7568 37.6661 54.3438 37.7198 53.9046L37.7444 53.7234C37.8073 53.3134 37.921 52.8819 38.0868 52.4458C38.1528 52.3245 38.2235 52.2047 38.3003 52.0849C38.3003 52.0849 42.5676 51.6166 43.188 51.5674L43.4184 51.549L43.6641 51.5321C43.7639 51.526 43.8637 51.5214 43.9666 51.5152Z" fill="#B71C1C"/>
<path d="M99.2154 66.6361C99.2154 66.6361 99.2139 66.6361 99.2123 66.6361C99.2139 66.6377 99.2169 66.6392 99.2215 66.6423V66.6407C99.2185 66.6377 99.2169 66.6377 99.2154 66.6361Z" fill="#B71C1C"/>
<path d="M99.2215 66.6407V66.6423C99.2169 66.6392 99.2139 66.6377 99.2123 66.6361C99.2139 66.6361 99.2154 66.6361 99.2154 66.6361C99.2169 66.6377 99.2185 66.6377 99.2215 66.6407Z" fill="#B71C1C"/>
<path d="M110.398 62.6544C110.398 75.4489 105.415 87.4756 96.3684 96.5232C90.9156 101.976 84.3801 105.952 77.2458 108.251C77.5483 107.424 77.7924 106.526 77.9644 105.548C95.5162 99.2013 108.094 82.3682 108.094 62.6544C108.094 37.5137 87.6402 17.0598 62.4995 17.0598C61.6596 17.0598 60.8227 17.0828 59.9935 17.1289C59.3593 16.4931 58.7527 15.8789 58.1846 15.2984C58.0771 15.1894 57.9726 15.0819 57.8698 14.976C59.3992 14.8301 60.944 14.7564 62.4995 14.7564C75.294 14.7564 87.3207 19.7394 96.3684 28.7855C105.415 37.8332 110.398 49.8599 110.398 62.6544Z" fill="#B71C1C"/>
<path d="M47.0285 108.009C40.1767 105.68 33.8993 101.79 28.6307 96.5232C19.5845 87.4756 14.6016 75.4489 14.6016 62.6544C14.6016 50.3175 19.2344 38.6946 27.6755 29.7683C28.2775 30.2259 28.9086 30.665 29.5612 31.0812C29.5766 31.0904 29.5919 31.1011 29.6073 31.1104C21.7436 39.3073 16.9049 50.4265 16.9049 62.6544C16.9049 80.7067 27.4498 96.342 42.7043 103.724C42.8702 103.969 43.0437 104.213 43.2249 104.455C44.3336 105.923 45.6342 107.126 47.0285 108.009Z" fill="#B71C1C"/>
<path d="M100.172 65.4553C100.214 65.3263 100.25 65.1912 100.284 65.0483L99.8158 64.4925C100.097 64.0702 100.948 63.0828 100.894 60.2926C100.84 57.5009 99.9448 56.4168 98.8607 55.7534C98.8039 55.7181 98.747 55.6889 98.6918 55.6644C98.5259 55.5891 98.3662 55.5569 98.2142 55.5569C97.8579 55.5569 97.5478 55.7381 97.322 55.9776C97.3067 55.993 97.2913 56.0083 97.2775 56.0252C97.0456 56.2878 96.9105 56.6042 96.9105 56.8237C96.9105 56.8237 90.0541 51.1467 88.0087 49.3439L88.0486 48.9247C88.0486 48.9247 89.7424 47.4198 88.5231 43.7759C87.3038 40.1304 81.4779 37.3126 81.4779 37.3126C81.4779 37.3126 82.284 38.1971 83.1486 39.4624C83.1501 39.4639 83.1516 39.467 83.1516 39.467C83.924 40.6064 84.7471 42.0499 85.068 43.4365C85.068 43.4365 78.6954 36.7567 69.8427 33.2525C61.4676 29.9372 58.785 27.3958 58.5208 27.1363C58.8111 27.4941 62.131 31.4989 68.1597 36.7552C67.9923 36.6661 58.3949 30.3195 49.1123 25.0187C48.5672 24.6624 48.0789 24.2386 47.612 23.7657C46.508 22.6447 45.6173 21.2857 44.9033 19.8514C44.5132 19.076 44.1969 18.2007 43.8345 17.4099C42.2329 13.984 39.561 11.0111 36.241 9.20063C37.4511 10.5443 38.463 12.0123 39.3352 13.5801C40.3334 15.4151 41.0459 17.284 41.4344 19.2695C41.5664 19.8637 41.7215 20.4595 41.9089 21.0431C41.9196 21.0753 41.9304 21.106 41.9411 21.1383C40.9584 20.6254 39.9188 19.9605 38.8024 19.271C32.7998 15.5656 25.194 9.95153 22.0415 3.76926C22.0415 3.76926 22.1167 13.4926 34.6363 21.8277C35.5992 22.4681 36.6341 23.1007 37.7474 23.7196H37.749C37.9962 23.8578 38.245 23.9945 38.4999 24.1296C54.8661 32.8548 64.0628 40.0813 67.8925 43.0803C67.8925 43.0803 67.891 43.0803 67.8879 43.0803C67.868 43.0803 67.7942 43.0787 67.6714 43.0664C67.6376 43.0634 67.6008 43.0588 67.5593 43.0526C67.5178 43.0465 67.4733 43.0403 67.4257 43.0326C67.3627 43.0219 67.2921 43.0081 67.2169 42.9927C67.137 42.9758 67.051 42.9559 66.9574 42.9328C66.9174 42.9221 66.8775 42.9113 66.836 42.8991C66.7193 42.8668 66.5949 42.8284 66.4598 42.7839C66.38 42.7562 66.297 42.7271 66.2111 42.6948C66.0682 42.6411 65.9178 42.5797 65.7596 42.5106C65.7273 42.4967 65.6951 42.4829 65.6628 42.4676C65.5984 42.4384 65.5323 42.4077 65.4663 42.3754C65.3327 42.3109 65.193 42.2418 65.0517 42.165C64.9795 42.1267 64.9073 42.0867 64.8336 42.0453C64.6862 41.9623 64.5357 41.8733 64.3806 41.7765C64.3023 41.7274 64.224 41.6767 64.1442 41.6261C63.7864 41.3911 63.4086 41.1193 63.014 40.8045C63.014 40.8045 63.6651 43.1156 65.001 44.5621C65.001 44.5621 63.3764 43.9479 62.2922 41.9961C61.5152 40.5972 60.3482 39.9047 58.9385 39.3718C58.3811 39.1599 57.7868 38.9741 57.1618 38.7806C56.8716 38.69 56.4724 38.5626 55.9887 38.3998C54.3563 37.8516 51.7566 36.9057 49.0985 35.6634C48.0005 35.152 46.8919 34.5885 45.8384 33.9819C45.8384 33.9819 45.8384 33.9819 45.8369 33.9819C44.4457 33.1819 43.1512 32.3066 42.0947 31.3729C42.0947 31.3729 42.1408 32.3281 42.5738 33.6287C42.5753 33.6287 42.5753 33.6287 42.5753 33.6287C42.7442 34.1385 42.973 34.7006 43.2832 35.281C43.383 35.4714 43.4936 35.6618 43.6118 35.8538C45.4346 39.2305 47.8716 41.9623 50.1903 43.9939C50.8905 44.6082 51.5785 45.1564 52.2372 45.6416C52.8576 46.0977 53.4503 46.4969 54.0001 46.8378C54.0799 46.887 54.1598 46.9346 54.2396 46.9791C54.4009 47.0697 54.5621 47.1511 54.7233 47.2263C54.7633 47.2448 54.8047 47.2632 54.8447 47.2801C54.926 47.3154 55.0059 47.3476 55.0873 47.3799C55.2086 47.426 55.3299 47.469 55.4512 47.5089C55.571 47.5473 55.6923 47.5826 55.8121 47.6148C55.9733 47.6563 56.1315 47.6932 56.2896 47.7223C56.368 47.7377 56.4463 47.7515 56.5246 47.7638C56.5906 47.7745 56.6566 47.7838 56.7227 47.793C57.082 47.839 57.4306 47.859 57.7607 47.859C58.1584 47.859 58.5301 47.8314 58.8648 47.7884C58.9477 47.7776 59.0291 47.7669 59.1074 47.7546C59.2257 47.7361 59.3378 47.7162 59.4437 47.6962C59.5082 47.6839 59.5696 47.6717 59.6295 47.6578C59.7017 47.6425 59.7693 47.6271 59.8322 47.6118C59.8906 47.5979 59.9459 47.5841 59.9981 47.5703C60.0764 47.5503 60.147 47.5304 60.2085 47.512C60.2499 47.4997 60.2883 47.4889 60.3221 47.4782C60.4572 47.4352 60.5309 47.4075 60.5309 47.4075C60.1747 46.8977 58.4057 45.0258 54.688 43.114C54.4485 42.9927 54.2012 42.8683 53.9448 42.7455C53.3551 42.4629 52.7993 42.1451 52.2772 41.8073C49.1722 39.8048 47.3095 37.1206 47.179 36.9302C47.3034 37.0669 48.6777 38.538 52.2925 40.0367C52.7378 40.221 53.1663 40.3899 53.5763 40.5496C54.5867 40.9412 55.4881 41.2698 56.2912 41.6122C57.9327 42.3109 59.1581 43.0618 60.0426 44.5068C61.5337 46.9469 63.9983 48.6529 63.9983 48.6529C63.8125 48.6851 63.5867 48.7128 63.3364 48.7343C63.2535 48.742 63.1675 48.7496 63.08 48.7558C62.8174 48.7757 62.5364 48.7911 62.2523 48.8034C62.1586 48.8064 62.0634 48.8111 61.9698 48.8141C61.2143 48.8402 60.4818 48.8448 60.0749 48.8448C59.8676 48.8448 59.7447 48.8433 59.7447 48.8433C61.073 50.9025 66.0314 52.8543 66.0314 52.8543C66.0314 52.8543 63.3211 52.7452 60.3681 50.9025C57.773 49.284 54.4454 47.8943 50.6264 47.4905C50.0982 47.4336 49.5607 47.3968 49.014 47.3799C48.9234 47.3768 48.8328 47.3753 48.7422 47.3753C48.2601 47.3753 47.7702 47.4121 47.2804 47.4812C45.8338 47.6778 44.3873 48.1323 43.1297 48.6329C43.0498 48.6636 42.9715 48.6959 42.8947 48.7266C42.3204 48.9631 41.7891 49.2042 41.3207 49.433C41.224 49.479 41.1303 49.5251 41.0397 49.5712C40.9937 49.5942 40.9491 49.6172 40.9046 49.6387C40.8171 49.6833 40.7311 49.7278 40.6497 49.7708C40.5269 49.8353 40.4101 49.8967 40.3011 49.9551C40.2274 49.9935 40.1583 50.0318 40.0923 50.0687C39.994 50.1224 39.9019 50.1731 39.8205 50.2207C39.7913 50.2361 39.7652 50.2514 39.7391 50.2668C39.6623 50.3098 39.5932 50.3497 39.5349 50.385C39.5149 50.3973 39.4965 50.4081 39.478 50.4188C39.4427 50.4403 39.4105 50.4587 39.3828 50.4756C39.3567 50.491 39.3337 50.5048 39.3153 50.5171C39.2861 50.534 39.2692 50.5447 39.2615 50.5493C39.2631 50.5493 39.2646 50.5493 39.2646 50.5493C39.2677 50.5478 39.2723 50.5478 39.2769 50.5463C39.2938 50.5432 39.326 50.5371 39.3706 50.5278C39.3874 50.5248 39.4043 50.5217 39.4228 50.5186C39.4458 50.514 39.4704 50.5094 39.498 50.5033C39.5226 50.4987 39.5472 50.4941 39.5733 50.491C39.5901 50.4879 39.607 50.4848 39.6239 50.4802C39.6807 50.471 39.7452 50.4587 39.8159 50.4465C39.8758 50.4372 39.9403 50.4265 40.0078 50.4142C40.0692 50.4035 40.1337 50.3927 40.2028 50.382C40.2535 50.3743 40.3057 50.3666 40.3595 50.3574C40.3856 50.3528 40.4101 50.3497 40.4363 50.3451C40.5407 50.3298 40.6512 50.3129 40.7664 50.296C40.8816 50.2791 41.0029 50.2622 41.1273 50.2453C41.6908 50.1685 42.3527 50.0933 43.0667 50.0365C43.145 50.0303 43.2249 50.0242 43.3047 50.018C43.3907 50.0119 43.4783 50.0057 43.5658 49.9996C43.6994 49.9919 43.833 49.9842 43.9696 49.9781H43.9835C43.9881 49.9766 43.9942 49.9766 43.9988 49.9766C44.0986 49.9704 44.1984 49.9674 44.2983 49.9627C44.6315 49.9505 44.9693 49.9428 45.3102 49.9428C45.3808 49.9428 45.4515 49.9428 45.5221 49.9443C45.6833 49.9443 45.8461 49.9489 46.0074 49.9535C46.7982 49.9796 47.6166 50.104 48.4582 50.3067C51.1639 50.9593 54.0984 52.4212 57.0344 53.9921C57.7822 54.3914 58.4625 54.697 59.0752 54.9288C59.2119 54.9795 59.3439 55.0286 59.4729 55.0732C59.6034 55.1177 59.7278 55.1576 59.8507 55.196C60.2177 55.3097 60.554 55.3956 60.858 55.4601C60.9594 55.4816 61.0576 55.5001 61.1513 55.517C61.6703 55.6091 62.0819 55.6352 62.3813 55.6352C62.5763 55.6352 62.7222 55.6245 62.8205 55.6122C62.8451 55.6091 62.8666 55.606 62.8865 55.6045C62.9142 55.6014 62.9341 55.5968 62.9479 55.5953C62.9556 55.5937 62.9602 55.5922 62.9648 55.5922C62.6485 55.7427 62.3322 55.8533 62.0112 55.9346C61.9037 55.9607 61.7962 55.9838 61.6872 56.0053C61.2511 56.0867 60.8012 56.1174 60.3175 56.1174C58.7297 56.1174 56.7933 55.7795 53.8772 55.7795C53.4181 55.7795 52.9359 55.7872 52.4276 55.8072C46.7813 56.0206 43.8959 59.8504 43.8238 59.9456C45.7647 59.2469 47.6643 58.9336 48.5779 58.8139C48.9342 58.7663 49.14 58.7478 49.14 58.7478C49.14 58.7478 49.1645 58.7463 49.2106 58.7463C49.229 58.7448 49.2505 58.7448 49.2751 58.7448C49.3887 58.7417 49.5668 58.7386 49.791 58.7386C50.1181 58.7386 50.545 58.7448 51.0134 58.7693C51.0994 58.7739 51.1854 58.7785 51.2729 58.7847C51.4479 58.7954 51.6276 58.8093 51.8073 58.8261C51.8979 58.8354 51.9885 58.8446 52.0791 58.8538C52.1236 58.8584 52.1697 58.8645 52.2142 58.8691C52.3954 58.8922 52.5751 58.9167 52.7516 58.9459C53.1048 59.0058 53.4442 59.0811 53.7467 59.1763C55.4635 59.7183 59.4729 61.5073 63.9 61.7607C63.9 61.7607 55.8827 62.5914 52.4845 65.9313C52.4952 65.9282 52.5305 65.9175 52.5889 65.8991C52.6119 65.8914 52.6396 65.8837 52.6687 65.8745C53.0081 65.7747 53.7882 65.5551 54.8769 65.3232C54.9752 65.3017 55.0765 65.2817 55.1809 65.2602C55.2332 65.2495 55.2854 65.2388 55.3391 65.228C55.4451 65.2065 55.5541 65.1865 55.6662 65.165C55.7767 65.1435 55.8904 65.1236 56.0056 65.1021C57.6241 64.8119 59.6756 64.557 61.8853 64.557C62.5364 64.557 63.1998 64.5784 63.8708 64.6291C64.095 64.646 64.3192 64.6644 64.5449 64.6875C64.7691 64.7105 64.9949 64.7366 65.2206 64.7673C65.4463 64.7965 65.6721 64.8303 65.8978 64.8671C66.3508 64.9408 66.8023 65.0284 67.2522 65.1343C67.4779 65.1865 67.7021 65.2434 67.9248 65.3048C68.5958 65.4875 69.2592 65.7102 69.9103 65.9758C70.2343 66.1094 70.5568 66.2538 70.8731 66.4104C71.4029 66.6699 71.9188 66.9632 72.4194 67.2934C72.5438 67.3748 72.6667 67.4592 72.7895 67.5467C73.0214 67.7095 73.2486 67.88 73.4713 68.0612C73.5204 68.1011 73.5696 68.141 73.6187 68.1809C73.7492 68.29 73.8782 68.4005 74.0057 68.5142C74.0072 68.5142 74.0072 68.5142 74.0072 68.5142C74.8825 67.7141 75.704 67.0108 76.521 66.3613C76.5993 66.2998 76.6761 66.2384 76.7544 66.177C76.5041 65.7148 76.2476 65.2633 75.9835 64.8272C75.6257 64.2345 75.2541 63.6709 74.8656 63.1519C71.9311 59.23 66.4506 56.3585 66.2802 56.2694C66.403 56.2878 71.234 56.1051 78.2838 57.6591C80.3753 58.1198 83.3113 59.3237 86.0662 61.1894C86.6343 61.5718 87.1948 61.9818 87.7384 62.4163C85.065 62.8125 82.5236 64.1178 80.2847 65.5336C80.1864 65.5981 80.0881 65.6626 79.9899 65.7271C79.9131 65.7777 79.8363 65.83 79.7595 65.8822C79.2804 66.2062 78.8105 66.5409 78.3499 66.888C78.0566 67.1076 77.7648 67.3333 77.4776 67.5621C76.6576 68.2147 75.8637 68.8996 75.0883 69.606C75.0222 69.6658 74.9562 69.7257 74.8917 69.7856L73.8997 70.7285C73.8675 70.7607 73.8337 70.793 73.7999 70.8252C71.9373 72.6218 69.6216 74.0315 67.0357 74.4262C66.4798 74.5091 65.9254 74.549 65.3757 74.549C64.7753 74.549 64.1795 74.5014 63.5913 74.4123C63.4439 74.3893 63.2965 74.3647 63.1506 74.3371C63.0047 74.3095 62.8589 74.2787 62.713 74.2465C62.4228 74.1805 62.1341 74.1052 61.8485 74.0208C61.7041 73.9778 61.5613 73.9332 61.42 73.8872C60.425 73.5586 59.4591 73.1209 58.5316 72.6003C58.2675 72.4514 58.0049 72.2963 57.7469 72.1351C57.6179 72.0537 57.4889 71.9723 57.3615 71.8878C57.234 71.8049 57.1081 71.7189 56.9822 71.6329C56.8563 71.5454 56.7304 71.4579 56.6075 71.3688C56.4831 71.2797 56.3603 71.1907 56.239 71.0985C56.0562 70.9603 55.875 70.8206 55.6969 70.6778C55.637 70.6317 55.5771 70.5826 55.5188 70.535C55.4005 70.4398 55.2838 70.3415 55.1671 70.2432C55.052 70.1449 54.9368 70.0467 54.8232 69.9469C54.688 69.8286 54.5529 69.7073 54.4208 69.586C54.3302 69.5046 54.2412 69.4217 54.1536 69.3372C53.9893 69.1837 53.8266 69.027 53.6684 68.8689C53.6146 68.8167 53.5624 68.7645 53.5102 68.7107C53.3014 68.5003 53.0972 68.2869 52.8975 68.0719C53.4749 68.7691 54.1091 69.4186 54.7709 70.0375C57.9373 73.0104 61.8147 75.0742 65.8011 75.0742C66.0713 75.0742 66.3431 75.065 66.6149 75.045C66.75 75.0358 66.8867 75.0235 67.0218 75.0081C68.2442 74.8761 69.4726 74.5398 70.6873 73.967C70.8224 73.9041 70.956 73.838 71.0911 73.7674C71.2263 73.6983 71.3599 73.6261 71.495 73.5493C71.7622 73.3989 72.0294 73.2346 72.2966 73.0595C73.0935 72.562 73.8613 71.9201 74.5938 71.2736C74.9025 71.0033 75.205 70.73 75.5013 70.469C75.5597 70.4183 75.618 70.3691 75.6764 70.32C76.4135 69.6919 77.1705 69.0839 77.9475 68.5034C78.2562 68.27 78.5695 68.0427 78.8858 67.8216C79.4171 67.4469 79.9576 67.0891 80.5074 66.7498C80.5074 66.7482 80.5089 66.7482 80.5089 66.7482C80.6379 66.6684 80.7653 66.5901 80.8943 66.5133C81.0356 66.4304 81.1799 66.3474 81.3274 66.263C81.4748 66.1801 81.6237 66.0956 81.7758 66.0127C82.843 65.4307 84.0331 64.8687 85.2585 64.4525C85.4351 64.3926 85.6101 64.3374 85.7867 64.2836C85.9633 64.2299 86.1399 64.1823 86.3165 64.1347C88.603 63.522 90.9524 64.0134 90.9524 64.0134C90.9524 64.6322 90.2015 65.0959 90.2015 65.0959C90.6607 65.2986 91.106 65.443 91.5129 65.5443C92.0181 65.6749 92.098 65.6518 92.5371 65.7255C92.0887 66.1739 91.2334 66.2768 91.2334 66.2768C91.3916 66.4273 91.5682 66.5547 91.7586 66.6638C91.8215 66.7006 91.886 66.7344 91.9521 66.7667C92.2147 66.8941 92.4972 66.9909 92.7844 67.0615C92.8565 67.0799 92.9287 67.0953 93.0009 67.1106C93.0731 67.1245 93.1452 67.1383 93.2174 67.1506C93.3971 67.1797 93.5752 67.2012 93.7502 67.2166C93.8101 67.2212 93.8685 67.2258 93.9268 67.2289C94.1096 67.2411 94.2846 67.2458 94.4505 67.2458C94.6716 67.2458 94.8758 67.2381 95.0493 67.2258C95.1538 67.2197 95.2474 67.212 95.3304 67.2028C95.3304 67.2028 95.3119 68.5848 93.4738 70.7392C93.4738 70.7392 96.78 70.1066 97.5738 67.9752C98.0084 68.9564 97.5923 70.449 97.5754 70.5212C99.4549 69.1468 99.4549 66.825 99.4549 66.825C100.475 67.731 100.717 69.2374 100.729 70.5795C100.722 72.2042 99.8772 73.6906 98.9206 74.9959C96.9535 77.6586 93.9376 80.5101 95.0632 84.1802C94.2247 80.5071 97.365 77.9872 99.5256 75.4734C100.688 74.1267 101.744 72.4806 101.883 70.6409C102.026 68.8136 101.683 66.6592 100.172 65.4553ZM81.8571 51.1912C81.8571 51.1912 81.8034 51.2649 81.6913 51.3755C81.6637 51.4031 81.6314 51.4338 81.5945 51.4661C81.5592 51.4968 81.5193 51.5306 81.4763 51.5659C81.3013 51.7041 81.0648 51.8607 80.7577 51.9989C80.6824 52.0342 80.601 52.068 80.515 52.0987C80.3446 52.1632 80.1557 52.2201 79.9499 52.2646C79.6382 52.3322 79.2866 52.3736 78.8904 52.3736C78.2163 52.3736 77.4131 52.2538 76.4688 51.936C76.3336 51.8899 76.1954 51.8408 76.0542 51.787C75.4906 51.5736 74.881 51.291 74.2222 50.9256C74.0564 50.835 73.889 50.7382 73.7185 50.6369C73.5465 50.5355 73.373 50.428 73.1949 50.3144C73.0183 50.2023 72.8371 50.0841 72.6528 49.9597C72.4701 49.8353 72.2828 49.7063 72.0923 49.5696C72.12 49.5804 72.2075 49.6126 72.3365 49.6618C72.3626 49.671 72.3902 49.6817 72.4194 49.6925C72.7096 49.8 73.158 49.9627 73.6371 50.1225C73.6848 50.1378 73.7323 50.1547 73.7815 50.1701C73.9258 50.2177 74.0717 50.2637 74.2161 50.3083C74.2882 50.3313 74.3604 50.3528 74.431 50.3727C74.4786 50.3866 74.5247 50.4004 74.5708 50.4127C74.8257 50.4848 75.0637 50.5447 75.2633 50.5816C75.3002 50.5893 75.3355 50.5954 75.3693 50.6C75.4706 50.6154 75.5597 50.6246 75.6334 50.6246C75.7087 50.6246 75.767 50.6154 75.8054 50.5954C75.8054 50.5954 74.8656 47.7776 73.998 46.6213C73.1335 45.4666 71.0036 45.2116 70.027 44.3456C70.0408 44.3486 70.1007 44.3609 70.202 44.3794C70.2297 44.3855 70.2619 44.3901 70.2973 44.3963C70.5276 44.4362 70.8931 44.4899 71.3583 44.5298C71.4305 44.536 71.5042 44.5406 71.581 44.5467C71.8881 44.5682 72.229 44.5821 72.6006 44.5821C72.702 44.5821 72.8079 44.5805 72.9139 44.579C72.9815 44.5774 73.0521 44.5774 73.1258 44.5774C73.5604 44.5774 74.0717 44.6051 74.623 44.6742C74.7612 44.6911 74.9025 44.7126 75.0453 44.7356C75.1881 44.7586 75.334 44.7848 75.4799 44.8139C75.6273 44.8431 75.7747 44.8754 75.9236 44.9122C77.2673 45.2377 78.6938 45.8458 79.8148 46.9284C80.125 47.2279 80.4352 47.5166 80.7408 47.7884C80.8436 47.879 80.945 47.968 81.0463 48.054C81.1462 48.14 81.2475 48.2245 81.3473 48.3059C81.4471 48.3872 81.5469 48.4671 81.6452 48.5439C81.8924 48.7343 82.1335 48.9093 82.37 49.0644C82.4637 49.1259 82.5574 49.1842 82.6495 49.2395C83.2514 49.5973 83.8073 49.8077 84.2926 49.8077C84.5951 49.8077 84.8684 49.7263 85.1095 49.5481C86.2704 48.6851 85.6316 47.0359 85.5978 46.9499C85.6746 47.0329 87.6924 49.2625 84.8746 51.3908C84.8746 51.3908 86.8063 53.7034 88.3066 54.786C88.3066 54.786 86.2474 54.0643 81.8571 51.1912ZM94.819 62.8356C94.3077 62.5023 93.7103 62.2075 93.0761 62.0847C93.0761 62.0847 92.8412 62.4378 92.9272 62.8171C92.9272 62.8171 92.7951 62.745 92.6554 62.6068C92.4174 62.3703 92.1548 61.9403 92.4803 61.3368C92.4911 61.3153 92.5033 61.2954 92.5156 61.2739C92.5448 61.2263 92.5755 61.1802 92.6093 61.1387C92.6431 61.0973 92.6784 61.0574 92.7153 61.022C92.941 60.8101 93.2327 60.7103 93.5383 60.7103C93.9376 60.7103 94.3614 60.8808 94.6885 61.1909C94.7054 61.2063 94.7223 61.2232 94.7376 61.2401C94.7852 61.2877 94.8298 61.3399 94.8728 61.3936C94.9296 61.4674 94.9802 61.5457 95.0263 61.6286C95.0724 61.713 95.1123 61.8006 95.1461 61.8942C95.1661 61.7668 95.1753 61.6378 95.1753 61.5057C95.1753 60.0362 93.9852 58.8446 92.5156 58.8446C91.301 58.8446 90.2768 59.6584 89.9604 60.7717C89.8913 61.0051 89.856 61.2508 89.856 61.5057C89.856 61.7868 89.899 62.057 89.9804 62.3104C90.028 62.464 90.0909 62.6114 90.1646 62.7511C89.9911 62.7342 89.5903 62.6236 89.2372 62.2935C88.907 61.9879 88.6199 61.4888 88.6045 60.6996C88.603 60.6765 88.603 60.652 88.603 60.6274C88.603 58.8569 90.0387 57.4211 91.8108 57.4211C91.8108 57.4211 91.8492 57.418 91.9183 57.418C91.9782 57.418 92.0626 57.4211 92.164 57.4318C92.1978 57.4349 92.2346 57.4395 92.273 57.4441C92.4634 57.4718 92.703 57.524 92.9702 57.6253C93.0239 57.6453 93.0792 57.6668 93.1345 57.6913C93.2727 57.7528 93.4186 57.8265 93.566 57.9155C93.655 57.9693 93.7456 58.0292 93.8362 58.0952C93.8838 58.129 93.9314 58.1658 93.979 58.2042C94.0543 58.2626 94.1295 58.3255 94.2032 58.3946C94.234 58.4223 94.2647 58.4515 94.2954 58.4822C94.4182 58.6004 94.5395 58.7309 94.6609 58.8784C94.7207 58.9505 94.7806 59.0273 94.8405 59.1087C95.5807 60.1145 96.2302 61.7192 96.4728 64.2713C96.4728 64.2713 95.8064 63.479 94.819 62.8356ZM99.2215 66.6423C99.2169 66.6392 99.2139 66.6377 99.2123 66.6361C99.2139 66.6361 99.2154 66.6361 99.2154 66.6361C99.2169 66.6377 99.2185 66.6377 99.2215 66.6407V66.6423Z" fill="#B71C1C"/>
<path d="M1.89187 134L6.93187 122.8H8.97987L14.0359 134H11.8599L7.52387 123.904H8.35587L4.03587 134H1.89187ZM4.21187 131.408L4.77187 129.776H10.8199L11.3799 131.408H4.21187ZM20.5322 134.16C19.6576 134.16 18.8202 134.037 18.0202 133.792C17.2202 133.536 16.5856 133.211 16.1162 132.816L16.8362 131.2C17.2842 131.552 17.8389 131.845 18.5002 132.08C19.1616 132.315 19.8389 132.432 20.5322 132.432C21.1189 132.432 21.5936 132.368 21.9562 132.24C22.3189 132.112 22.5856 131.941 22.7562 131.728C22.9269 131.504 23.0122 131.253 23.0122 130.976C23.0122 130.635 22.8896 130.363 22.6442 130.16C22.3989 129.947 22.0789 129.781 21.6842 129.664C21.3002 129.536 20.8682 129.419 20.3882 129.312C19.9189 129.205 19.4442 129.083 18.9642 128.944C18.4949 128.795 18.0629 128.608 17.6682 128.384C17.2842 128.149 16.9696 127.84 16.7242 127.456C16.4789 127.072 16.3562 126.581 16.3562 125.984C16.3562 125.376 16.5162 124.821 16.8362 124.32C17.1669 123.808 17.6629 123.403 18.3242 123.104C18.9962 122.795 19.8442 122.64 20.8682 122.64C21.5402 122.64 22.2069 122.725 22.8682 122.896C23.5296 123.067 24.1056 123.312 24.5962 123.632L23.9403 125.248C23.4389 124.949 22.9216 124.731 22.3882 124.592C21.8549 124.443 21.3429 124.368 20.8523 124.368C20.2762 124.368 19.8069 124.437 19.4442 124.576C19.0922 124.715 18.8309 124.896 18.6602 125.12C18.5002 125.344 18.4202 125.6 18.4202 125.888C18.4202 126.229 18.5376 126.507 18.7722 126.72C19.0176 126.923 19.3322 127.083 19.7162 127.2C20.1109 127.317 20.5482 127.435 21.0282 127.552C21.5082 127.659 21.9829 127.781 22.4523 127.92C22.9322 128.059 23.3642 128.24 23.7483 128.464C24.1429 128.688 24.4576 128.992 24.6923 129.376C24.9376 129.76 25.0603 130.245 25.0603 130.832C25.0603 131.429 24.8949 131.984 24.5642 132.496C24.2443 132.997 23.7483 133.403 23.0763 133.712C22.4042 134.011 21.5562 134.16 20.5322 134.16ZM28.7228 134V122.8H30.8028V134H28.7228ZM33.8481 134L38.8881 122.8H40.9361L45.9921 134H43.8161L39.4801 123.904H40.3121L35.9921 134H33.8481ZM36.1681 131.408L36.7281 129.776H42.7761L43.3361 131.408H36.1681ZM54.0443 134.16C53.1909 134.16 52.3963 134.021 51.6603 133.744C50.9349 133.456 50.3003 133.056 49.7563 132.544C49.2229 132.021 48.8069 131.408 48.5083 130.704C48.2096 130 48.0603 129.232 48.0603 128.4C48.0603 127.568 48.2096 126.8 48.5083 126.096C48.8069 125.392 49.2283 124.784 49.7723 124.272C50.3163 123.749 50.9509 123.349 51.6763 123.072C52.4016 122.784 53.1963 122.64 54.0603 122.64C54.9776 122.64 55.8149 122.8 56.5723 123.12C57.3296 123.429 57.9696 123.893 58.4923 124.512L57.1483 125.776C56.7429 125.339 56.2896 125.013 55.7883 124.8C55.2869 124.576 54.7429 124.464 54.1563 124.464C53.5696 124.464 53.0309 124.56 52.5403 124.752C52.0603 124.944 51.6389 125.216 51.2763 125.568C50.9243 125.92 50.6469 126.336 50.4443 126.816C50.2523 127.296 50.1563 127.824 50.1563 128.4C50.1563 128.976 50.2523 129.504 50.4443 129.984C50.6469 130.464 50.9243 130.88 51.2763 131.232C51.6389 131.584 52.0603 131.856 52.5403 132.048C53.0309 132.24 53.5696 132.336 54.1563 132.336C54.7429 132.336 55.2869 132.229 55.7883 132.016C56.2896 131.792 56.7429 131.456 57.1483 131.008L58.4923 132.288C57.9696 132.896 57.3296 133.36 56.5723 133.68C55.8149 134 54.9723 134.16 54.0443 134.16ZM62.0852 134V122.8H66.6932C67.6852 122.8 68.5332 122.96 69.2372 123.28C69.9519 123.6 70.5012 124.059 70.8853 124.656C71.2692 125.253 71.4612 125.963 71.4612 126.784C71.4612 127.605 71.2692 128.315 70.8853 128.912C70.5012 129.499 69.9519 129.952 69.2372 130.272C68.5332 130.581 67.6852 130.736 66.6932 130.736H63.2372L64.1652 129.792V134H62.0852ZM69.4132 134L66.5812 129.936H68.8052L71.6532 134H69.4132ZM64.1652 130.016L63.2372 129.024H66.5972C67.5146 129.024 68.2026 128.827 68.6612 128.432C69.1306 128.037 69.3652 127.488 69.3652 126.784C69.3652 126.069 69.1306 125.52 68.6612 125.136C68.2026 124.752 67.5146 124.56 66.5972 124.56H63.2372L64.1652 123.536V130.016ZM77.9841 134V129.568L78.4481 130.848L73.5841 122.8H75.8081L79.7121 129.28H78.4641L82.4001 122.8H84.4481L79.5841 130.848L80.0641 129.568V134H77.9841ZM87.2696 134V122.8H91.8776C92.8696 122.8 93.7176 122.96 94.4216 123.28C95.1363 123.6 95.6856 124.059 96.0696 124.656C96.4536 125.253 96.6456 125.963 96.6456 126.784C96.6456 127.605 96.4536 128.315 96.0696 128.912C95.6856 129.509 95.1363 129.968 94.4216 130.288C93.7176 130.608 92.8696 130.768 91.8776 130.768H88.4216L89.3496 129.792V134H87.2696ZM89.3496 130.016L88.4216 129.008H91.7816C92.699 129.008 93.387 128.816 93.8456 128.432C94.315 128.037 94.5496 127.488 94.5496 126.784C94.5496 126.069 94.315 125.52 93.8456 125.136C93.387 124.752 92.699 124.56 91.7816 124.56H88.4216L89.3496 123.536V130.016ZM102.267 134V124.56H98.5546V122.8H108.059V124.56H104.347V134H102.267ZM116.311 134.16C115.437 134.16 114.631 134.016 113.895 133.728C113.159 133.44 112.519 133.04 111.975 132.528C111.431 132.005 111.01 131.397 110.711 130.704C110.413 130 110.263 129.232 110.263 128.4C110.263 127.568 110.413 126.805 110.711 126.112C111.01 125.408 111.431 124.8 111.975 124.288C112.519 123.765 113.159 123.36 113.895 123.072C114.631 122.784 115.431 122.64 116.295 122.64C117.17 122.64 117.97 122.784 118.695 123.072C119.431 123.36 120.071 123.765 120.615 124.288C121.159 124.8 121.581 125.408 121.879 126.112C122.178 126.805 122.327 127.568 122.327 128.4C122.327 129.232 122.178 130 121.879 130.704C121.581 131.408 121.159 132.016 120.615 132.528C120.071 133.04 119.431 133.44 118.695 133.728C117.97 134.016 117.175 134.16 116.311 134.16ZM116.295 132.336C116.861 132.336 117.383 132.24 117.863 132.048C118.343 131.856 118.759 131.584 119.111 131.232C119.463 130.869 119.735 130.453 119.927 129.984C120.13 129.504 120.231 128.976 120.231 128.4C120.231 127.824 120.13 127.301 119.927 126.832C119.735 126.352 119.463 125.936 119.111 125.584C118.759 125.221 118.343 124.944 117.863 124.752C117.383 124.56 116.861 124.464 116.295 124.464C115.73 124.464 115.207 124.56 114.727 124.752C114.258 124.944 113.842 125.221 113.479 125.584C113.127 125.936 112.85 126.352 112.647 126.832C112.455 127.301 112.359 127.824 112.359 128.4C112.359 128.965 112.455 129.488 112.647 129.968C112.85 130.448 113.127 130.869 113.479 131.232C113.831 131.584 114.247 131.856 114.727 132.048C115.207 132.24 115.73 132.336 116.295 132.336Z" fill="#1A1A1A"/>
<path d="M30.7135 149.5L34.5535 141.1H35.4295L39.2695 149.5H38.3335L34.8055 141.616H35.1655L31.6375 149.5H30.7135ZM32.2255 147.256L32.4895 146.536H37.3735L37.6375 147.256H32.2255ZM46.6258 149.572C45.9858 149.572 45.3938 149.468 44.8498 149.26C44.3138 149.044 43.8458 148.744 43.4458 148.36C43.0538 147.976 42.7458 147.524 42.5218 147.004C42.3058 146.484 42.1978 145.916 42.1978 145.3C42.1978 144.684 42.3058 144.116 42.5218 143.596C42.7458 143.076 43.0578 142.624 43.4578 142.24C43.8578 141.856 44.3258 141.56 44.8618 141.352C45.4058 141.136 45.9978 141.028 46.6378 141.028C47.2778 141.028 47.8618 141.128 48.3898 141.328C48.9258 141.528 49.3818 141.832 49.7578 142.24L49.2058 142.804C48.8538 142.452 48.4658 142.2 48.0418 142.048C47.6178 141.896 47.1618 141.82 46.6738 141.82C46.1538 141.82 45.6738 141.908 45.2338 142.084C44.8018 142.252 44.4218 142.496 44.0938 142.816C43.7738 143.128 43.5218 143.496 43.3378 143.92C43.1618 144.336 43.0738 144.796 43.0738 145.3C43.0738 145.796 43.1618 146.256 43.3378 146.68C43.5218 147.104 43.7738 147.476 44.0938 147.796C44.4218 148.108 44.8018 148.352 45.2338 148.528C45.6738 148.696 46.1498 148.78 46.6618 148.78C47.1418 148.78 47.5938 148.708 48.0178 148.564C48.4498 148.42 48.8458 148.176 49.2058 147.832L49.7098 148.504C49.3098 148.856 48.8418 149.124 48.3058 149.308C47.7698 149.484 47.2098 149.572 46.6258 149.572ZM48.8578 148.396V145.3H49.7098V148.504L48.8578 148.396ZM55.4151 144.856H59.8551V145.612H55.4151V144.856ZM55.5111 148.732H60.5631V149.5H54.6231V141.1H60.3831V141.868H55.5111V148.732ZM65.0504 149.5V141.1H65.7824L71.5784 148.396H71.1944V141.1H72.0704V149.5H71.3384L65.5544 142.204H65.9384V149.5H65.0504ZM80.8601 149.572C80.2281 149.572 79.6441 149.468 79.1081 149.26C78.5721 149.044 78.1081 148.744 77.7161 148.36C77.3241 147.976 77.0161 147.524 76.7921 147.004C76.5761 146.484 76.4681 145.916 76.4681 145.3C76.4681 144.684 76.5761 144.116 76.7921 143.596C77.0161 143.076 77.3241 142.624 77.7161 142.24C78.1161 141.856 78.5841 141.56 79.1201 141.352C79.6561 141.136 80.2401 141.028 80.8721 141.028C81.4801 141.028 82.0521 141.132 82.5881 141.34C83.1241 141.54 83.5761 141.844 83.9441 142.252L83.3801 142.816C83.0361 142.464 82.6561 142.212 82.2401 142.06C81.8241 141.9 81.3761 141.82 80.8961 141.82C80.3921 141.82 79.9241 141.908 79.4921 142.084C79.0601 142.252 78.6841 142.496 78.3641 142.816C78.0441 143.128 77.7921 143.496 77.6081 143.92C77.4321 144.336 77.3441 144.796 77.3441 145.3C77.3441 145.804 77.4321 146.268 77.6081 146.692C77.7921 147.108 78.0441 147.476 78.3641 147.796C78.6841 148.108 79.0601 148.352 79.4921 148.528C79.9241 148.696 80.3921 148.78 80.8961 148.78C81.3761 148.78 81.8241 148.7 82.2401 148.54C82.6561 148.38 83.0361 148.124 83.3801 147.772L83.9441 148.336C83.5761 148.744 83.1241 149.052 82.5881 149.26C82.0521 149.468 81.4761 149.572 80.8601 149.572ZM90.0654 149.5V146.38L90.2694 146.932L86.7054 141.1H87.6534L90.7854 146.224H90.2814L93.4134 141.1H94.3014L90.7374 146.932L90.9414 146.38V149.5H90.0654Z" fill="#1A1A1A"/>
</svg>
