<?xml version="1.0" encoding="utf-8"?><svg viewBox="0 0 105 105" xmlns="http://www.w3.org/2000/svg" xmlns:xlink="http://www.w3.org/1999/xlink"><style>:root>svg{display:none}:root>svg:target{display:block}</style><svg viewBox="0 0 19 14" id="blockqoutes" xmlns="http://www.w3.org/2000/svg"><path d="M8 6.5v7H1V6.4C1 1.6 5.5 1 5.5 1l.6 1.4s-2 .3-2.4 1.9c-.4 1.2.4 2.2.4 2.2H8zm10 0v7h-7V6.4C11 1.6 15.5 1 15.5 1l.6 1.4s-2 .3-2.4 1.9c-.4 1.2.4 2.2.4 2.2H18z"/></svg><svg viewBox="0 0 22 21" id="check-cross" xmlns="http://www.w3.org/2000/svg"><path d="M14.165 7.335l-6.33 6.33m6.33 0l-6.33-6.33M11 20.5c-5.523 0-10-4.478-10-10C1 4.977 5.478.5 11 .5c5.523 0 10 4.478 10 10 0 5.523-4.478 10-10 10z"/></svg><svg viewBox="0 0 21 21" id="check-cross-black" xmlns="http://www.w3.org/2000/svg"><path d="M13.665 7.335l-6.33 6.33m6.33 0l-6.33-6.33M10.5 20.5c-5.523 0-10-4.478-10-10 0-5.523 4.478-10 10-10 5.523 0 10 4.478 10 10 0 5.523-4.478 10-10 10z"/></svg><svg viewBox="0 0 21 21" id="check-cross-blue" xmlns="http://www.w3.org/2000/svg"><path d="M13.665 7.335l-6.33 6.33m6.33 0l-6.33-6.33M10.5 20.5c-5.523 0-10-4.478-10-10 0-5.523 4.478-10 10-10 5.523 0 10 4.478 10 10 0 5.523-4.478 10-10 10z"/></svg><svg viewBox="0 0 22 21" id="check-tariff" xmlns="http://www.w3.org/2000/svg"><path d="M6.556 9.944l3.333 3.334 5.556-5.555M11 20.5c-5.523 0-10-4.478-10-10C1 4.977 5.478.5 11 .5c5.523 0 10 4.478 10 10 0 5.523-4.478 10-10 10z"/></svg><svg viewBox="0 0 21 21" id="check-tariff-black" xmlns="http://www.w3.org/2000/svg"><path d="M6.056 9.944l3.333 3.334 5.556-5.555M10.5 20.5c-5.523 0-10-4.478-10-10 0-5.523 4.478-10 10-10 5.523 0 10 4.478 10 10 0 5.523-4.478 10-10 10z"/></svg><svg viewBox="0 0 21 21" id="check-tariff-blue" xmlns="http://www.w3.org/2000/svg"><path d="M6.056 9.944l3.333 3.334 5.556-5.555M10.5 20.5c-5.523 0-10-4.478-10-10 0-5.523 4.478-10 10-10 5.523 0 10 4.478 10 10 0 5.523-4.478 10-10 10z"/></svg><svg viewBox="0 0 29 29" id="error" xmlns="http://www.w3.org/2000/svg"><path d="M18.457 10.543l-7.914 7.914m7.914 0l-7.914-7.914M14.5 27C7.596 27 2 21.403 2 14.5 2 7.596 7.597 2 14.5 2 21.404 2 27 7.597 27 14.5 27 21.404 21.403 27 14.5 27z"/></svg><svg viewBox="0 0 100 100" id="favicon" xmlns="http://www.w3.org/2000/svg"><rect width="100" height="100" rx="25"/><path d="M30.438 44.363a17.586 17.586 0 00-3.904 6.622c-2.314 1.017-5.332 6.1-5.332 6.1.48-9.38 6.712-11.923 9.236-12.722zM37.506 40.4a17.556 17.556 0 00-3.405 2.042 17.288 17.288 0 00-1.412-.096c-6.927-.196-10.547 3.847-10.656 3.97C27.977 34.088 37.506 40.4 37.506 40.4zM62.938 44.618s-.737.729-1.748.18c-1.012-.548-.67-1.985-.67-1.985 1.738.502 2.418 1.805 2.418 1.805zM61.925 35.216a32.46 32.46 0 00-4.436-2.716c-.35-.176-.707-.346-1.071-.51l-.001-.002-.038-.038c-.04-.044-.083-.089-.127-.134l-.015-.016c-.432-.47-1.555-1.816-2.397-3.921a14.38 14.38 0 01-1.01-4.707s1.764 3.025 3.428 5.016c1.638 1.961 5.546 6.875 5.667 7.028zM53.485 30.76c-4.674-2.05-6.056-3.511-6.056-3.511s-2.477-2.004-4.831-5.212a27.244 27.244 0 01-1.358-2.032c-1.709-2.83-3.035-6.29-2.767-10.005 0 0 2.051 5.496 5.452 9.416.127.144.254.288.384.428.437.474.954 1.015 1.53 1.604 1.766 1.808 4.068 4.062 6.188 6.148a15.45 15.45 0 001.458 3.165zM68.706 63.337c-.794.605-3.234.549-4.916-.832-.875-.718-1.675-2.317-2.533-4.078a31.04 31.04 0 00-1.368 1.103l-.003.002-.002.003-.082.068a12.796 12.796 0 01.142.24l.002.004c.047.08.092.162.136.245l.01.02c.04.073.079.15.117.225.045.09.09.18.133.271 0 0 1.538 2.924-3.883 2.521 0 0 1.545 2.137 5.932.814 0 0 .226 1.607-.794 2.873-1.021 1.266-1.646 2.042-1.646 2.987 0 .946.227 1.891 1.758 3.14 0 0-1.152-2.156.17-3.158 1.325-1.003 4.671-2.799 5.2-5.03 0 0 .757 1.116-.547 3.138.068-.045 2.342-1.577 2.174-4.556zM34.327 32.743c-1.595-.412-4.05-1.23-6.444-2.76A17.744 17.744 0 0126 28.604a15.192 15.192 0 01-2.841-3.136c.067.047 1.503 1.073 4.018 2.046a25.99 25.99 0 004.866 1.355c.696.123 1.364.287 2.004.48l.11 2.269c.003.064.028.495.17 1.125z"/><path d="M36.308 38.247c-5.1-2.097-9.696-1.462-9.696-1.462 2.482-1.914 5.228-2.387 7.247-2.412 1.607 1.59 2.45 3.874 2.45 3.874zM24.897 67.747l-.003-.005c-.007-.01-.019-.032-.038-.067l-.012-.021c-.398-.753-2.857-5.911.882-12.58-.148 1.93.023 3.904.54 5.842-1.486 3.829-1.372 6.761-1.37 6.831zM61.263 54.855c-.258.177-.515.36-.762.545a21.55 21.55 0 00-1.243-1.777c.718.255 1.39.694 2.005 1.232zM70.477 60.785c-.315.606-.914 1.04-1.539 1.311-1.085.468-2.227.432-3.25.04h-.002a5.339 5.339 0 01-2.477-1.995c-.287-.397-.53-.876-.76-1.31l-.495-.915.093-.066c.35-.247.714-.487 1.083-.716.027-.017.054-.035.082-.05.128.185.25.368.366.549.339.518.602 1.085.948 1.598.136.21.285.41.446.596.479.554 1.186.876 1.916.81a2.68 2.68 0 00.9-.239c.229-.111.432-.277.621-.483a2.328 2.328 0 01-.355.786 3.256 3.256 0 01-.605.62 4.03 4.03 0 001.293.056c.587-.064 1.186-.228 1.735-.592zM32.373 49.413a5.108 5.108 0 01-1.086 1.696 3.04 3.04 0 01-.136.13 2.757 2.757 0 01-.27.22c-.2.145-.401.252-.598.316-.289.094-.566.096-.812-.011-.331-.144-.558-.462-.673-.889a2.55 2.55 0 01-.052-.232c-.115-.684.012-1.58.4-2.475.681-1.569 1.882-2.063 2.785-2.245-.281.747-.345 1.508-.215 2.17.073.369.206.706.396.993.077.118.165.227.261.327zM31.68 55.516a4.25 4.25 0 01-.315.922 3.084 3.084 0 01-.36.582l-.121.14v.002c-.252.275-.544.465-.865.548-.098.027-.2.042-.302.046-.64.027-1.233-.375-1.668-1.04a4.062 4.062 0 01-.421-.863 5.295 5.295 0 01-.287-1.529c-.045-1.08.221-2.059.678-2.725.329.539.792.929 1.362 1.09.299.084.605.1.91.054.05.566.181 1.086.38 1.532.13.287.286.543.469.76.16.193.342.354.54.48zM35.489 49.833v.001a16.04 16.04 0 00-.757 3.507c-.007.08-.015.16-.02.239a3.948 3.948 0 01-.335.454c-.533.623-1.177.945-1.783.811l-.003-.001c-.308-.069-.573-.249-.788-.511v-.001a1.958 1.958 0 01-.148-.205c-.12-.19-.22-.412-.296-.657a4.144 4.144 0 01-.173-1.033 3.55 3.55 0 00.621-.432c.58-.495 1.08-1.209 1.407-2.065.705.233 1.505.073 2.218-.388.023.091.042.185.057.281zM33.17 62.054a4.351 4.351 0 01-.046.594c-.05.324-.138.612-.267.854-.139.264-.324.47-.556.605-.04.024-.081.045-.124.065-.597.265-1.343.044-2.061-.53a5.197 5.197 0 01-.68-.659 7.45 7.45 0 01-1.156-1.843c-.505-1.136-.709-2.274-.625-3.18.561.578 1.266.91 2.018.88.206-.01.405-.045.597-.104.218.627.543 1.177.94 1.614.203.224.426.419.664.579.388.261.814.43 1.26.482.024.221.036.437.035.643zM35.313 58.754c-.274.79-.76 1.38-1.367 1.607a1.566 1.566 0 01-1.01.033c-.412-.12-.798-.399-1.121-.794a3.653 3.653 0 01-.405-.615v-.001a4.383 4.383 0 01-.295-.7c.193-.152.372-.332.534-.535.16-.203.304-.429.427-.675a4.74 4.74 0 00.423-1.264c.75.091 1.519-.258 2.17-.911.012.833.103 1.653.27 2.456v.002a12.407 12.407 0 00.374 1.397zM36.793 65.605a1.403 1.403 0 01-.753.253 1.872 1.872 0 01-.567-.065 2.948 2.948 0 01-.755-.327v-.001c-.458-.276-.917-.688-1.332-1.208.259-.28.455-.627.585-1.025.068-.207.119-.427.15-.659.055-.387.058-.804.011-1.238.675-.19 1.255-.65 1.683-1.284.302.678.665 1.341 1.087 1.994.203.313.42.622.65.93l.009.01c.137 1.18-.126 2.17-.768 2.62zM36.389 69.098a1.32 1.32 0 01-.36.417c-.5.378-1.236.352-2.027.002a4.843 4.843 0 01-.826-.468 7.494 7.494 0 01-1.689-1.65c-.7-.928-1.148-1.917-1.313-2.783.902.427 1.814.5 2.561.129.64.841 1.411 1.455 2.188 1.76.302.12.606.192.903.212.189.014.375.007.556-.022a5.436 5.436 0 01.163.61c.045.228.072.447.078.655.013.443-.063.832-.234 1.138zM45.13 74.38a1.511 1.511 0 01-.956.156 1.526 1.526 0 01-.136-.024 2.84 2.84 0 01-.806-.31c-.514-.285-1.033-.734-1.498-1.309v-.001c.1-.441.082-.93-.044-1.437a4.814 4.814 0 00-.471-1.167c.746-.59 1.09-1.607 1.02-2.757a39.699 39.699 0 013.166 2.908c.087.087.17.175.254.263.079.228.144.454.195.675.313 1.37.071 2.56-.725 3.002zM40.636 73.004a1.366 1.366 0 01-.26.39c-.386.405-.994.536-1.695.426-.386-.06-.8-.194-1.22-.394a6.854 6.854 0 01-1.746-1.225 6.866 6.866 0 01-1.306-1.682c.85.17 1.633.042 2.203-.434.143-.12.267-.257.373-.41.59.499 1.232.845 1.863 1.01.197.053.39.088.583.104.33.029.65.003.952-.08.044.092.085.182.121.272.313.766.37 1.489.132 2.023zM40.74 69.516l-.02.014a1.43 1.43 0 01-.45.22c-.132.04-.272.062-.417.068a2.443 2.443 0 01-.7-.078v-.001c-.58-.147-1.202-.492-1.783-1a3.64 3.64 0 00.045-1.067 4.6 4.6 0 00-.09-.584 5.631 5.631 0 00-.187-.663c.74-.43 1.198-1.278 1.335-2.323.61.69 1.293 1.364 2.05 2.02.205.179.416.355.633.532.035.1.065.198.092.297.294 1.094.139 2.076-.508 2.565zM49.821 76.682a4.56 4.56 0 01-.026.649c-.102.88-.48 1.565-1.11 1.846a1.499 1.499 0 01-.285.094c-.16.037-.325.046-.495.032a2.08 2.08 0 01-.488-.098c-.745-.24-1.518-.881-2.135-1.793.188-.622.22-1.339.092-2.084a.648.648 0 00-.014-.077 2.069 2.069 0 00.78-.507c.595-.61.836-1.587.725-2.697 1.243 1.474 2.225 2.947 2.944 4.416.006.074.01.147.012.219zM51.037 84.677c-.08.026-.16.044-.244.053-1.138.122-2.236-1.394-2.478-3.404a6.514 6.514 0 01-.038-1.156 2.307 2.307 0 00.795-.196c.707-.317 1.202-.962 1.46-1.791.38 1.082.617 2.162.707 3.237.101 1.21.002 2.302-.202 3.257zM44.273 77.484a1.814 1.814 0 01-.402.672 1.419 1.419 0 01-.757.406c-.275.052-.574.03-.884-.059-.974-.279-2.048-1.22-2.796-2.566a6.668 6.668 0 01-.564-1.31c1.016.083 1.905-.194 2.438-.852.645.65 1.357 1.124 2.055 1.383.008.046.018.092.03.138a2.57 2.57 0 01.092-.094c.277.095.551.155.818.178.02.082.037.165.05.246.127.702.1 1.348-.08 1.858zM47.322 81.703c-.352.576-.844.95-1.417 1.012-.617.066-1.218-.243-1.703-.803-.521-.599-.91-1.485-1.04-2.506a2.617 2.617 0 001.69-1.09c.711.88 1.568 1.492 2.42 1.738a6.756 6.756 0 00.05 1.65zM43.298 82.423c-1.096.18-2.623-.653-3.753-2.15-.955-1.265-1.377-2.673-1.199-3.686.039.063.077.127.117.19.98 1.543 2.44 2.507 3.794 2.656l.008.088c.121 1.131.5 2.14 1.033 2.902zM51.176 66.864c-1.628 1.946-5.19 1.582-5.19 1.582a45.14 45.14 0 00-3.454-3.023 22.259 22.259 0 01-1.597-1.39s3.054.643 5.427-1.058c1.53 1.349 3.198 2.596 4.814 3.89zM45.769 62.438c-3.14 1.714-6.556-.35-6.632-.396l-.001-.001c-1.256-1.632-2.068-3.352-2.43-5.148.065.078 2.42 2.934 6.057 2.17.857 1.236 1.885 2.34 3.006 3.375zM42.247 58.268a4.996 4.996 0 01-2.767-.646c-2.101-1.19-2.973-3.588-2.973-3.588.019-.359.101-.858.191-1.321l.635-.228a15.565 15.565 0 012.97-.72c.075 1.566.371 2.96.84 4.222a13.313 13.313 0 001.104 2.281zM59.267 78.904c-1.681-4.34-9.427-5.962-9.427-5.962a29.116 29.116 0 00-2.948-3.585s3.051.085 4.986-1.925c3.574 2.931 6.747 6.201 7.389 11.472z"/><path d="M59.385 80.75c.078 9.379-9.008 9.488-9.008 9.488.128-.14 3.119-3.488 2.68-8.921-.18-2.229-.898-4.458-2.15-6.675 0 0 5.11-.247 8.47 5.73.004.125.006.251.008.379zM37.07 45.594a5.012 5.012 0 01-.612 1.633 5.381 5.381 0 01-.694.95 4.196 4.196 0 01-.643.573c-.585.418-1.189.578-1.662.392a.976.976 0 01-.139-.067c-.258-.148-.437-.4-.538-.72a1.851 1.851 0 01-.059-.243 2.867 2.867 0 01-.012-.85l.017-.127a4.4 4.4 0 01.239-.891c.046-.085.095-.168.149-.252 0 0 2.977-.327 3.41-.361l.16-.013.172-.012.211-.012zM75.618 56.145h-.003l.007.004v-.001l-.004-.003z"/><path d="M75.622 56.148v.001l-.007-.004h.003s.002 0 .004.003z"/><path d="M83.42 53.367c0 8.927-3.477 17.318-9.789 23.63-3.805 3.805-8.365 6.58-13.342 8.183.21-.576.381-1.203.501-1.886 12.246-4.428 21.022-16.173 21.022-29.927 0-17.542-14.27-31.813-31.812-31.813-.586 0-1.17.016-1.749.048A187.516 187.516 0 0146.77 20.1a34.012 34.012 0 013.23-.153c8.927 0 17.318 3.477 23.631 9.788 6.312 6.313 9.788 14.705 9.788 23.632zM39.206 85.012c-4.781-1.626-9.161-4.34-12.837-8.014-6.312-6.313-9.789-14.705-9.789-23.632 0-8.607 3.233-16.717 9.123-22.945.42.32.86.626 1.315.916l.032.02c-5.486 5.72-8.862 13.478-8.862 22.01 0 12.595 7.357 23.504 18 28.655.116.17.237.341.364.51.773 1.024 1.68 1.864 2.654 2.48z"/><path d="M76.285 55.32c.029-.09.055-.184.078-.283l-.327-.388c.197-.295.79-.983.752-2.93-.037-1.948-.662-2.705-1.418-3.167a.967.967 0 00-.118-.063.8.8 0 00-.333-.075.867.867 0 00-.623.294.488.488 0 00-.03.033c-.162.184-.257.404-.257.557 0 0-4.784-3.96-6.21-5.218l.027-.293s1.182-1.05.331-3.592c-.85-2.544-4.915-4.51-4.915-4.51s.562.617 1.165 1.5l.002.003c.54.795 1.114 1.802 1.337 2.77 0 0-4.446-4.66-10.622-7.106-5.844-2.313-7.716-4.086-7.9-4.267.202.25 2.519 3.044 6.725 6.711-.117-.062-6.813-4.49-13.29-8.189a6.375 6.375 0 01-1.046-.874c-.77-.782-1.392-1.73-1.89-2.731-.273-.541-.493-1.152-.746-1.704-1.117-2.39-2.982-4.464-5.298-5.727.844.937 1.55 1.961 2.159 3.055.696 1.28 1.193 2.584 1.464 3.97.093.415.2.83.331 1.237l.023.067c-.686-.358-1.411-.822-2.19-1.303-4.188-2.585-9.495-6.503-11.695-10.816 0 0 .053 6.784 8.788 12.6.672.447 1.394.888 2.17 1.32h.002c.172.096.346.192.524.286 11.419 6.088 17.836 11.13 20.508 13.222h-.003a1.653 1.653 0 01-.23-.02c-.029-.003-.06-.008-.093-.013a4.724 4.724 0 01-.411-.093 5.643 5.643 0 01-.956-.366 6.762 6.762 0 01-.441-.23 8.18 8.18 0 01-.316-.187l-.166-.105c-.25-.164-.513-.354-.788-.574 0 0 .454 1.613 1.386 2.622 0 0-1.133-.428-1.89-1.79-.542-.976-1.356-1.46-2.34-1.831a20.982 20.982 0 00-1.24-.413 47.297 47.297 0 01-5.626-2.175c-.765-.357-1.539-.75-2.274-1.173-.972-.558-1.875-1.169-2.612-1.82 0 0 .032.666.334 1.574h.001a7.357 7.357 0 00.724 1.552c1.271 2.356 2.972 4.262 4.59 5.68.488.428.968.81 1.428 1.15.433.318.846.596 1.23.834a4.412 4.412 0 00.589.308 5.493 5.493 0 00.423.16 4.905 4.905 0 00.887.198c.251.032.494.047.725.047a6.06 6.06 0 001.303-.14 4.865 4.865 0 00.404-.103l.08-.023c.094-.03.145-.05.145-.05-.248-.355-1.482-1.661-4.076-2.995-.167-.085-.34-.172-.519-.257-.411-.197-.8-.42-1.163-.655-2.167-1.397-3.466-3.27-3.558-3.403.087.096 1.046 1.122 3.568 2.168.311.128.61.246.896.358.705.273 1.334.502 1.894.741 1.146.487 2 1.011 2.618 2.02 1.04 1.702 2.76 2.892 2.76 2.892a8.556 8.556 0 01-.64.072c-.184.014-.38.025-.579.033l-.197.008c-.527.018-1.038.021-1.322.021h-.23c.927 1.436 4.386 2.798 4.386 2.798s-1.89-.076-3.951-1.362c-1.81-1.13-4.133-2.099-6.797-2.38a14.82 14.82 0 00-1.315-.081 7.32 7.32 0 00-1.02.074c-1.01.137-2.018.454-2.896.803l-.164.066a18.966 18.966 0 00-1.294.59l-.094.046-.178.092a36.9 36.9 0 00-.39.208 7.815 7.815 0 00-.189.106l-.056.032a5.029 5.029 0 00-.183.107c-.024.014-.047.027-.066.04a.979.979 0 00-.047.028l-.038.023h.002l.009-.003a2.666 2.666 0 00.102-.019l.052-.01a.747.747 0 01.053-.01c.012-.001.023-.003.035-.007l.134-.023a7.18 7.18 0 01.27-.045c.035-.006.072-.01.11-.017l.053-.009.23-.034a24.152 24.152 0 011.605-.181l.166-.013.182-.013.282-.015h.01l.01-.001.21-.01a19.1 19.1 0 01.853-.013c.113 0 .226.004.339.007a8.53 8.53 0 011.71.246c1.888.456 3.935 1.476 5.984 2.572.522.278.996.492 1.424.653.095.036.187.07.277.101a7.965 7.965 0 001.171.31c.362.064.65.082.858.082.136 0 .238-.007.307-.016l.046-.005c.02-.002.033-.006.043-.007l.012-.002a3.594 3.594 0 01-.892.288 5.175 5.175 0 01-.956.079c-1.107 0-2.458-.236-4.493-.236-.32 0-.657.005-1.011.02-3.94.148-5.953 2.82-6.004 2.887a16.608 16.608 0 013.71-.836l.049-.001.045-.001a16.369 16.369 0 011.767.057l.19.019.094.01c.126.017.251.034.375.054a5.3 5.3 0 01.694.16c1.198.379 3.995 1.627 7.084 1.804 0 0-5.594.58-7.965 2.91a3.24 3.24 0 00.073-.023l.056-.017c.237-.07.78-.223 1.54-.384a19.262 19.262 0 01.322-.066c.075-.016.151-.03.23-.045l.236-.044c1.13-.202 2.56-.38 4.102-.38a18.374 18.374 0 012.328.147 14.502 14.502 0 011.886.375c.469.127.931.283 1.386.468.226.093.45.194.671.303a9.74 9.74 0 011.813 1.152l.103.083c.091.077.181.154.27.233h.001a33.38 33.38 0 011.754-1.502l.163-.129a22.473 22.473 0 00-.538-.941c-.25-.414-.509-.807-.78-1.17-2.047-2.736-5.871-4.74-5.99-4.801.086.013 3.456-.115 8.375.97 1.46.32 3.508 1.16 5.43 2.462.396.267.787.553 1.167.856-1.866.277-3.639 1.188-5.2 2.175a367.774 367.774 0 00-.367.244 25.577 25.577 0 00-1.592 1.172 32.986 32.986 0 00-1.805 1.551l-.692.658a4.092 4.092 0 01-.07.068c-1.3 1.253-2.915 2.237-4.72 2.512a7.852 7.852 0 01-1.157.086 8.305 8.305 0 01-1.858-.211 9.68 9.68 0 01-.902-.251 11.495 11.495 0 01-2.016-.898 14.16 14.16 0 01-1.6-1.048 17.015 17.015 0 01-.377-.293l-.125-.1a22.673 22.673 0 01-.766-.662 13.767 13.767 0 01-.635-.61 18.605 18.605 0 01-.428-.447c.403.487.846.94 1.308 1.372 2.209 2.074 4.914 3.514 7.696 3.514a7.773 7.773 0 00.851-.046 7.977 7.977 0 002.84-.866 9.76 9.76 0 00.841-.494c.556-.347 1.091-.795 1.602-1.246.216-.188.427-.379.634-.561l.122-.104a31.62 31.62 0 012.239-1.743c.37-.262.748-.511 1.131-.748l.002-.001a18.435 18.435 0 01.57-.339l.313-.174a15.699 15.699 0 012.43-1.089 12.1 12.1 0 01.369-.118c.123-.037.246-.07.37-.104 1.595-.427 3.234-.084 3.234-.084 0 .431-.524.755-.524.755.32.142.631.242.915.313.353.091.409.075.715.126-.313.313-.91.385-.91.385a1.89 1.89 0 00.502.342 2.945 2.945 0 00.731.24 5.076 5.076 0 00.523.074l.123.008a5.488 5.488 0 00.784-.002c.073-.004.138-.01.196-.016 0 0-.013.964-1.295 2.468 0 0 2.306-.442 2.86-1.929.303.685.013 1.726.001 1.776 1.312-.958 1.312-2.578 1.312-2.578.711.632.88 1.683.889 2.62-.006 1.133-.595 2.17-1.262 3.08-1.373 1.858-3.477 3.848-2.692 6.409-.585-2.563 1.606-4.321 3.114-6.075.81-.94 1.548-2.089 1.644-3.372.1-1.275-.139-2.778-1.193-3.618zm-12.779-9.952s-.037.052-.115.129a1.394 1.394 0 01-.15.133 2.385 2.385 0 01-.671.372c-.12.045-.25.084-.395.115a3.474 3.474 0 01-.739.076c-.47 0-1.03-.083-1.69-.305a9.802 9.802 0 01-1.568-.705 12.178 12.178 0 01-.717-.426 16.5 16.5 0 01-.768-.52l.17.064.058.022c.203.075.516.188.85.3l.1.033a16.107 16.107 0 00.454.141c.033.01.065.02.097.028a5.535 5.535 0 00.558.13c.07.012.132.018.184.018a.27.27 0 00.12-.02s-.656-1.966-1.261-2.773c-.604-.806-2.09-.984-2.771-1.588l.122.024.067.011c.16.028.415.066.74.094l.155.011a10.185 10.185 0 00.93.023l.148-.001a8.482 8.482 0 011.952.233c.938.228 1.933.652 2.715 1.407a21.916 21.916 0 00.86.785 9.874 9.874 0 00.923.706c.065.042.13.083.195.122.42.25.808.396 1.147.396a.932.932 0 00.57-.181c.81-.602.364-1.753.34-1.813.054.058 1.462 1.614-.504 3.099 0 0 1.347 1.613 2.394 2.369 0 0-1.437-.504-4.5-2.509zm9.044 8.125c-.357-.233-.774-.438-1.216-.524 0 0-.164.246-.104.511 0 0-.092-.05-.19-.147-.166-.165-.349-.465-.122-.886l.025-.044a.874.874 0 01.14-.175.825.825 0 01.573-.218 1.19 1.19 0 01.837.37 1.295 1.295 0 01.202.27c.032.06.06.12.083.186a1.856 1.856 0 10-3.476.598 1.205 1.205 0 01-.647-.32c-.23-.212-.43-.56-.441-1.111l-.001-.05a2.238 2.238 0 012.238-2.238s.027-.002.075-.002c.042 0 .1.002.172.01l.076.008a2.3 2.3 0 01.6.173 2.707 2.707 0 01.81.551 3.251 3.251 0 01.381.438c.516.701.97 1.821 1.139 3.602 0 0-.465-.553-1.154-1.002zm3.072 2.656l-.007-.004h.003s.002 0 .004.003v.001z"/></svg><svg viewBox="0 0 29 28" id="success" xmlns="http://www.w3.org/2000/svg"><path d="M8.944 13.306l4.167 4.167 6.945-6.944M14.5 26.5C7.596 26.5 2 20.903 2 14 2 7.096 7.597 1.5 14.5 1.5 21.404 1.5 27 7.097 27 14c0 6.904-5.597 12.5-12.5 12.5z"/></svg><svg viewBox="0 0 105 105" id="thanks" xmlns="http://www.w3.org/2000/svg"><path d="M30.278 49.722l16.667 16.669 27.777-27.777M52.5 102.5c-27.617 0-50-22.388-50-50 0-27.617 22.388-50 50-50 27.617 0 50 22.388 50 50 0 27.617-22.388 50-50 50z"/></svg></svg>