<?xml version="1.0" encoding="utf-8"?><svg viewBox="0 0 144 100" xmlns="http://www.w3.org/2000/svg" xmlns:xlink="http://www.w3.org/1999/xlink"><style>:root>svg{display:none}:root>svg:target{display:block}</style><svg viewBox="0 0 144 30" id="binance" xmlns="http://www.w3.org/2000/svg"><path d="M6.867 15L3.61 18.253.36 15l3.252-3.252L6.867 15zm7.892-7.898l5.573 5.577 3.253-3.253L14.759.6 5.932 9.426l3.253 3.253 5.574-5.577zm11.15 4.646L22.657 15l3.252 3.253L29.159 15l-3.25-3.252zm-11.15 11.15l-5.574-5.574-3.253 3.25L14.76 29.4l8.826-8.826-3.253-3.25-5.573 5.574zm0-4.645L18.01 15l-3.252-3.252L11.506 15l3.253 3.253zm34.326.312v-.045c0-2.122-1.126-3.182-2.957-3.88 1.125-.633 2.076-1.626 2.076-3.407v-.045c0-2.482-1.986-4.086-5.214-4.086h-7.326v15.796h7.512c3.565 0 5.914-1.444 5.914-4.333h-.005zm-4.333-6.753c0 1.174-.971 1.671-2.504 1.671h-3.2V10.15h3.43c1.466 0 2.28.586 2.28 1.624l-.006.04zm.88 6.32c0 1.173-.925 1.713-2.462 1.713h-4.122v-3.47h4.015c1.784 0 2.575.656 2.575 1.717l-.006.04zm10.754 4.766V7.102H52.9v15.796h3.486zm18.68 0V7.102h-3.442v9.727l-7.4-9.727H61.02v15.796h3.43V12.856l7.647 10.042h2.968zm19.247 0L87.533 6.99h-3.205L77.56 22.898h3.542l1.45-3.543h6.679l1.443 3.543h3.638zm-6.316-6.612h-4.21l2.1-5.12 2.11 5.12zm22.88 6.612V7.102h-3.441v9.727l-7.403-9.727h-3.202v15.796h3.427V12.856l7.651 10.042h2.968zm17.937-2.55l-2.209-2.233c-1.241 1.125-2.347 1.848-4.153 1.848-2.707 0-4.58-2.25-4.58-4.963v-.045c0-2.707 1.918-4.918 4.58-4.918 1.578 0 2.814.675 4.04 1.78l2.203-2.548c-1.465-1.444-3.246-2.437-6.226-2.437-4.851 0-8.235 3.677-8.235 8.16v.045c0 4.535 3.452 8.122 8.1 8.122 3.041.009 4.845-1.074 6.468-2.81h.012zm14.827 2.55v-3.095h-8.587V16.48h7.448v-3.095h-7.448v-3.19h8.463V7.098h-11.915v15.796l12.039.003z"/></svg><svg viewBox="0 0 19 14" id="blockqoutes" xmlns="http://www.w3.org/2000/svg"><path d="M8 6.5v7H1V6.4C1 1.6 5.5 1 5.5 1l.6 1.4s-2 .3-2.4 1.9c-.4 1.2.4 2.2.4 2.2H8zm10 0v7h-7V6.4C11 1.6 15.5 1 15.5 1l.6 1.4s-2 .3-2.4 1.9c-.4 1.2.4 2.2.4 2.2H18z"/></svg><svg viewBox="0 0 9 8" id="chart" xmlns="http://www.w3.org/2000/svg"><path d="M.156 7.602V.855A.44.44 0 01.277.543.422.422 0 01.594.414a.4.4 0 01.304.129c.084.086.125.19.125.312v6.122c0 .07.037.105.11.105h7.242a.42.42 0 01.309.125.413.413 0 01.129.309.426.426 0 01-.438.434H.508a.343.343 0 01-.254-.098.33.33 0 01-.098-.25zm.797-2.153l-.598-.594 1.77-1.8a.963.963 0 01.29-.215.704.704 0 01.593 0 .926.926 0 01.289.215L4.66 4.477c.034.033.068.05.102.05.036 0 .071-.017.105-.05l1.5-1.536-.582-.582a.3.3 0 01-.098-.203.29.29 0 01.075-.195.41.41 0 01.21-.125l2.301-.59a.329.329 0 01.375.172c.034.065.04.138.02.219L8.074 3.94a.41.41 0 01-.125.211.305.305 0 01-.199.075.296.296 0 01-.2-.098l-.59-.594-1.612 1.621c-.19.19-.386.285-.586.285a.73.73 0 01-.301-.066.94.94 0 01-.285-.219L2.812 3.738c-.03-.036-.065-.054-.101-.054-.034 0-.068.018-.102.054L.953 5.45z"/></svg><svg viewBox="0 0 22 21" id="check-cross" xmlns="http://www.w3.org/2000/svg"><path d="M14.165 7.335l-6.33 6.33m6.33 0l-6.33-6.33M11 20.5c-5.523 0-10-4.478-10-10C1 4.977 5.478.5 11 .5c5.523 0 10 4.478 10 10 0 5.523-4.478 10-10 10z"/></svg><svg viewBox="0 0 56 56" id="check-success" xmlns="http://www.w3.org/2000/svg"><path d="M9.95 24.755H6.125a.936.936 0 00-.737 1.515l14.979 18.976a2.256 2.256 0 003.534.002l.002-.002L50.61 11.404l.002-.002c.491-.615.038-1.511-.736-1.511h-3.823c-.688 0-1.342.315-1.766.858v.002L22.132 38.813 11.714 25.613a2.25 2.25 0 00-1.765-.858z"/></svg><svg viewBox="0 0 22 21" id="check-tariff" xmlns="http://www.w3.org/2000/svg"><path d="M6.556 9.944l3.333 3.334 5.556-5.555M11 20.5c-5.523 0-10-4.478-10-10C1 4.977 5.478.5 11 .5c5.523 0 10 4.478 10 10 0 5.523-4.478 10-10 10z"/></svg><svg viewBox="0 0 1 12" id="divider-line" xmlns="http://www.w3.org/2000/svg"><rect width="1" height="12" rx=".5" fill-opacity=".32"/></svg><svg viewBox="0 0 29 29" id="error" xmlns="http://www.w3.org/2000/svg"><path d="M18.457 10.543l-7.914 7.914m7.914 0l-7.914-7.914M14.5 27C7.596 27 2 21.403 2 14.5 2 7.596 7.597 2 14.5 2 21.404 2 27 7.597 27 14.5 27 21.404 21.403 27 14.5 27z"/></svg><svg viewBox="0 0 100 100" id="favicon" xmlns="http://www.w3.org/2000/svg"><rect width="100" height="100" rx="25"/><path d="M30.438 44.363a17.586 17.586 0 00-3.904 6.622c-2.314 1.017-5.332 6.1-5.332 6.1.48-9.38 6.712-11.923 9.236-12.722zM37.506 40.4a17.556 17.556 0 00-3.405 2.042 17.288 17.288 0 00-1.412-.096c-6.927-.196-10.547 3.847-10.656 3.97C27.977 34.088 37.506 40.4 37.506 40.4zM62.938 44.618s-.737.729-1.748.18c-1.012-.548-.67-1.985-.67-1.985 1.738.502 2.418 1.805 2.418 1.805zM61.925 35.216a32.46 32.46 0 00-4.436-2.716c-.35-.176-.707-.346-1.071-.51l-.001-.002-.038-.038c-.04-.044-.083-.089-.127-.134l-.015-.016c-.432-.47-1.555-1.816-2.397-3.921a14.38 14.38 0 01-1.01-4.707s1.764 3.025 3.428 5.016c1.638 1.961 5.546 6.875 5.667 7.028zM53.485 30.76c-4.674-2.05-6.056-3.511-6.056-3.511s-2.477-2.004-4.831-5.212a27.244 27.244 0 01-1.358-2.032c-1.709-2.83-3.035-6.29-2.767-10.005 0 0 2.051 5.496 5.452 9.416.127.144.254.288.384.428.437.474.954 1.015 1.53 1.604 1.766 1.808 4.068 4.062 6.188 6.148a15.45 15.45 0 001.458 3.165zM68.706 63.337c-.794.605-3.234.549-4.916-.832-.875-.718-1.675-2.317-2.533-4.078a31.04 31.04 0 00-1.368 1.103l-.003.002-.002.003-.082.068a12.796 12.796 0 01.142.24l.002.004c.047.08.092.162.136.245l.01.02c.04.073.079.15.117.225.045.09.09.18.133.271 0 0 1.538 2.924-3.883 2.521 0 0 1.545 2.137 5.932.814 0 0 .226 1.607-.794 2.873-1.021 1.266-1.646 2.042-1.646 2.987 0 .946.227 1.891 1.758 3.14 0 0-1.152-2.156.17-3.158 1.325-1.003 4.671-2.799 5.2-5.03 0 0 .757 1.116-.547 3.138.068-.045 2.342-1.577 2.174-4.556zM34.327 32.743c-1.595-.412-4.05-1.23-6.444-2.76A17.744 17.744 0 0126 28.604a15.192 15.192 0 01-2.841-3.136c.067.047 1.503 1.073 4.018 2.046a25.99 25.99 0 004.866 1.355c.696.123 1.364.287 2.004.48l.11 2.269c.003.064.028.495.17 1.125z"/><path d="M36.308 38.247c-5.1-2.097-9.696-1.462-9.696-1.462 2.482-1.914 5.228-2.387 7.247-2.412 1.607 1.59 2.45 3.874 2.45 3.874zM24.897 67.747l-.003-.005c-.007-.01-.019-.032-.038-.067l-.012-.021c-.398-.753-2.857-5.911.882-12.58-.148 1.93.023 3.904.54 5.842-1.486 3.829-1.372 6.761-1.37 6.831zM61.263 54.855c-.258.177-.515.36-.762.545a21.55 21.55 0 00-1.243-1.777c.718.255 1.39.694 2.005 1.232zM70.477 60.785c-.315.606-.914 1.04-1.539 1.311-1.085.468-2.227.432-3.25.04h-.002a5.339 5.339 0 01-2.477-1.995c-.287-.397-.53-.876-.76-1.31l-.495-.915.093-.066c.35-.247.714-.487 1.083-.716.027-.017.054-.035.082-.05.128.185.25.368.366.549.339.518.602 1.085.948 1.598.136.21.285.41.446.596.479.554 1.186.876 1.916.81a2.68 2.68 0 00.9-.239c.229-.111.432-.277.621-.483a2.328 2.328 0 01-.355.786 3.256 3.256 0 01-.605.62 4.03 4.03 0 001.293.056c.587-.064 1.186-.228 1.735-.592zM32.373 49.413a5.108 5.108 0 01-1.086 1.696 3.04 3.04 0 01-.136.13 2.757 2.757 0 01-.27.22c-.2.145-.401.252-.598.316-.289.094-.566.096-.812-.011-.331-.144-.558-.462-.673-.889a2.55 2.55 0 01-.052-.232c-.115-.684.012-1.58.4-2.475.681-1.569 1.882-2.063 2.785-2.245-.281.747-.345 1.508-.215 2.17.073.369.206.706.396.993.077.118.165.227.261.327zM31.68 55.516a4.25 4.25 0 01-.315.922 3.084 3.084 0 01-.36.582l-.121.14v.002c-.252.275-.544.465-.865.548-.098.027-.2.042-.302.046-.64.027-1.233-.375-1.668-1.04a4.062 4.062 0 01-.421-.863 5.295 5.295 0 01-.287-1.529c-.045-1.08.221-2.059.678-2.725.329.539.792.929 1.362 1.09.299.084.605.1.91.054.05.566.181 1.086.38 1.532.13.287.286.543.469.76.16.193.342.354.54.48zM35.489 49.833v.001a16.04 16.04 0 00-.757 3.507c-.007.08-.015.16-.02.239a3.948 3.948 0 01-.335.454c-.533.623-1.177.945-1.783.811l-.003-.001c-.308-.069-.573-.249-.788-.511v-.001a1.958 1.958 0 01-.148-.205c-.12-.19-.22-.412-.296-.657a4.144 4.144 0 01-.173-1.033 3.55 3.55 0 00.621-.432c.58-.495 1.08-1.209 1.407-2.065.705.233 1.505.073 2.218-.388.023.091.042.185.057.281zM33.17 62.054a4.351 4.351 0 01-.046.594c-.05.324-.138.612-.267.854-.139.264-.324.47-.556.605-.04.024-.081.045-.124.065-.597.265-1.343.044-2.061-.53a5.197 5.197 0 01-.68-.659 7.45 7.45 0 01-1.156-1.843c-.505-1.136-.709-2.274-.625-3.18.561.578 1.266.91 2.018.88.206-.01.405-.045.597-.104.218.627.543 1.177.94 1.614.203.224.426.419.664.579.388.261.814.43 1.26.482.024.221.036.437.035.643zM35.313 58.754c-.274.79-.76 1.38-1.367 1.607a1.566 1.566 0 01-1.01.033c-.412-.12-.798-.399-1.121-.794a3.653 3.653 0 01-.405-.615v-.001a4.383 4.383 0 01-.295-.7c.193-.152.372-.332.534-.535.16-.203.304-.429.427-.675a4.74 4.74 0 00.423-1.264c.75.091 1.519-.258 2.17-.911.012.833.103 1.653.27 2.456v.002a12.407 12.407 0 00.374 1.397zM36.793 65.605a1.403 1.403 0 01-.753.253 1.872 1.872 0 01-.567-.065 2.948 2.948 0 01-.755-.327v-.001c-.458-.276-.917-.688-1.332-1.208.259-.28.455-.627.585-1.025.068-.207.119-.427.15-.659.055-.387.058-.804.011-1.238.675-.19 1.255-.65 1.683-1.284.302.678.665 1.341 1.087 1.994.203.313.42.622.65.93l.009.01c.137 1.18-.126 2.17-.768 2.62zM36.389 69.098a1.32 1.32 0 01-.36.417c-.5.378-1.236.352-2.027.002a4.843 4.843 0 01-.826-.468 7.494 7.494 0 01-1.689-1.65c-.7-.928-1.148-1.917-1.313-2.783.902.427 1.814.5 2.561.129.64.841 1.411 1.455 2.188 1.76.302.12.606.192.903.212.189.014.375.007.556-.022a5.436 5.436 0 01.163.61c.045.228.072.447.078.655.013.443-.063.832-.234 1.138zM45.13 74.38a1.511 1.511 0 01-.956.156 1.526 1.526 0 01-.136-.024 2.84 2.84 0 01-.806-.31c-.514-.285-1.033-.734-1.498-1.309v-.001c.1-.441.082-.93-.044-1.437a4.814 4.814 0 00-.471-1.167c.746-.59 1.09-1.607 1.02-2.757a39.699 39.699 0 013.166 2.908c.087.087.17.175.254.263.079.228.144.454.195.675.313 1.37.071 2.56-.725 3.002zM40.636 73.004a1.366 1.366 0 01-.26.39c-.386.405-.994.536-1.695.426-.386-.06-.8-.194-1.22-.394a6.854 6.854 0 01-1.746-1.225 6.866 6.866 0 01-1.306-1.682c.85.17 1.633.042 2.203-.434.143-.12.267-.257.373-.41.59.499 1.232.845 1.863 1.01.197.053.39.088.583.104.33.029.65.003.952-.08.044.092.085.182.121.272.313.766.37 1.489.132 2.023zM40.74 69.516l-.02.014a1.43 1.43 0 01-.45.22c-.132.04-.272.062-.417.068a2.443 2.443 0 01-.7-.078v-.001c-.58-.147-1.202-.492-1.783-1a3.64 3.64 0 00.045-1.067 4.6 4.6 0 00-.09-.584 5.631 5.631 0 00-.187-.663c.74-.43 1.198-1.278 1.335-2.323.61.69 1.293 1.364 2.05 2.02.205.179.416.355.633.532.035.1.065.198.092.297.294 1.094.139 2.076-.508 2.565zM49.821 76.682a4.56 4.56 0 01-.026.649c-.102.88-.48 1.565-1.11 1.846a1.499 1.499 0 01-.285.094c-.16.037-.325.046-.495.032a2.08 2.08 0 01-.488-.098c-.745-.24-1.518-.881-2.135-1.793.188-.622.22-1.339.092-2.084a.648.648 0 00-.014-.077 2.069 2.069 0 00.78-.507c.595-.61.836-1.587.725-2.697 1.243 1.474 2.225 2.947 2.944 4.416.006.074.01.147.012.219zM51.037 84.677c-.08.026-.16.044-.244.053-1.138.122-2.236-1.394-2.478-3.404a6.514 6.514 0 01-.038-1.156 2.307 2.307 0 00.795-.196c.707-.317 1.202-.962 1.46-1.791.38 1.082.617 2.162.707 3.237.101 1.21.002 2.302-.202 3.257zM44.273 77.484a1.814 1.814 0 01-.402.672 1.419 1.419 0 01-.757.406c-.275.052-.574.03-.884-.059-.974-.279-2.048-1.22-2.796-2.566a6.668 6.668 0 01-.564-1.31c1.016.083 1.905-.194 2.438-.852.645.65 1.357 1.124 2.055 1.383.008.046.018.092.03.138a2.57 2.57 0 01.092-.094c.277.095.551.155.818.178.02.082.037.165.05.246.127.702.1 1.348-.08 1.858zM47.322 81.703c-.352.576-.844.95-1.417 1.012-.617.066-1.218-.243-1.703-.803-.521-.599-.91-1.485-1.04-2.506a2.617 2.617 0 001.69-1.09c.711.88 1.568 1.492 2.42 1.738a6.756 6.756 0 00.05 1.65zM43.298 82.423c-1.096.18-2.623-.653-3.753-2.15-.955-1.265-1.377-2.673-1.199-3.686.039.063.077.127.117.19.98 1.543 2.44 2.507 3.794 2.656l.008.088c.121 1.131.5 2.14 1.033 2.902zM51.176 66.864c-1.628 1.946-5.19 1.582-5.19 1.582a45.14 45.14 0 00-3.454-3.023 22.259 22.259 0 01-1.597-1.39s3.054.643 5.427-1.058c1.53 1.349 3.198 2.596 4.814 3.89zM45.769 62.438c-3.14 1.714-6.556-.35-6.632-.396l-.001-.001c-1.256-1.632-2.068-3.352-2.43-5.148.065.078 2.42 2.934 6.057 2.17.857 1.236 1.885 2.34 3.006 3.375zM42.247 58.268a4.996 4.996 0 01-2.767-.646c-2.101-1.19-2.973-3.588-2.973-3.588.019-.359.101-.858.191-1.321l.635-.228a15.565 15.565 0 012.97-.72c.075 1.566.371 2.96.84 4.222a13.313 13.313 0 001.104 2.281zM59.267 78.904c-1.681-4.34-9.427-5.962-9.427-5.962a29.116 29.116 0 00-2.948-3.585s3.051.085 4.986-1.925c3.574 2.931 6.747 6.201 7.389 11.472z"/><path d="M59.385 80.75c.078 9.379-9.008 9.488-9.008 9.488.128-.14 3.119-3.488 2.68-8.921-.18-2.229-.898-4.458-2.15-6.675 0 0 5.11-.247 8.47 5.73.004.125.006.251.008.379zM37.07 45.594a5.012 5.012 0 01-.612 1.633 5.381 5.381 0 01-.694.95 4.196 4.196 0 01-.643.573c-.585.418-1.189.578-1.662.392a.976.976 0 01-.139-.067c-.258-.148-.437-.4-.538-.72a1.851 1.851 0 01-.059-.243 2.867 2.867 0 01-.012-.85l.017-.127a4.4 4.4 0 01.239-.891c.046-.085.095-.168.149-.252 0 0 2.977-.327 3.41-.361l.16-.013.172-.012.211-.012zM75.618 56.145h-.003l.007.004v-.001l-.004-.003z"/><path d="M75.622 56.148v.001l-.007-.004h.003s.002 0 .004.003z"/><path d="M83.42 53.367c0 8.927-3.477 17.318-9.789 23.63-3.805 3.805-8.365 6.58-13.342 8.183.21-.576.381-1.203.501-1.886 12.246-4.428 21.022-16.173 21.022-29.927 0-17.542-14.27-31.813-31.812-31.813-.586 0-1.17.016-1.749.048A187.516 187.516 0 0146.77 20.1a34.012 34.012 0 013.23-.153c8.927 0 17.318 3.477 23.631 9.788 6.312 6.313 9.788 14.705 9.788 23.632zM39.206 85.012c-4.781-1.626-9.161-4.34-12.837-8.014-6.312-6.313-9.789-14.705-9.789-23.632 0-8.607 3.233-16.717 9.123-22.945.42.32.86.626 1.315.916l.032.02c-5.486 5.72-8.862 13.478-8.862 22.01 0 12.595 7.357 23.504 18 28.655.116.17.237.341.364.51.773 1.024 1.68 1.864 2.654 2.48z"/><path d="M76.285 55.32c.029-.09.055-.184.078-.283l-.327-.388c.197-.295.79-.983.752-2.93-.037-1.948-.662-2.705-1.418-3.167a.967.967 0 00-.118-.063.8.8 0 00-.333-.075.867.867 0 00-.623.294.488.488 0 00-.03.033c-.162.184-.257.404-.257.557 0 0-4.784-3.96-6.21-5.218l.027-.293s1.182-1.05.331-3.592c-.85-2.544-4.915-4.51-4.915-4.51s.562.617 1.165 1.5l.002.003c.54.795 1.114 1.802 1.337 2.77 0 0-4.446-4.66-10.622-7.106-5.844-2.313-7.716-4.086-7.9-4.267.202.25 2.519 3.044 6.725 6.711-.117-.062-6.813-4.49-13.29-8.189a6.375 6.375 0 01-1.046-.874c-.77-.782-1.392-1.73-1.89-2.731-.273-.541-.493-1.152-.746-1.704-1.117-2.39-2.982-4.464-5.298-5.727.844.937 1.55 1.961 2.159 3.055.696 1.28 1.193 2.584 1.464 3.97.093.415.2.83.331 1.237l.023.067c-.686-.358-1.411-.822-2.19-1.303-4.188-2.585-9.495-6.503-11.695-10.816 0 0 .053 6.784 8.788 12.6.672.447 1.394.888 2.17 1.32h.002c.172.096.346.192.524.286 11.419 6.088 17.836 11.13 20.508 13.222h-.003a1.653 1.653 0 01-.23-.02c-.029-.003-.06-.008-.093-.013a4.724 4.724 0 01-.411-.093 5.643 5.643 0 01-.956-.366 6.762 6.762 0 01-.441-.23 8.18 8.18 0 01-.316-.187l-.166-.105c-.25-.164-.513-.354-.788-.574 0 0 .454 1.613 1.386 2.622 0 0-1.133-.428-1.89-1.79-.542-.976-1.356-1.46-2.34-1.831a20.982 20.982 0 00-1.24-.413 47.297 47.297 0 01-5.626-2.175c-.765-.357-1.539-.75-2.274-1.173-.972-.558-1.875-1.169-2.612-1.82 0 0 .032.666.334 1.574h.001a7.357 7.357 0 00.724 1.552c1.271 2.356 2.972 4.262 4.59 5.68.488.428.968.81 1.428 1.15.433.318.846.596 1.23.834a4.412 4.412 0 00.589.308 5.493 5.493 0 00.423.16 4.905 4.905 0 00.887.198c.251.032.494.047.725.047a6.06 6.06 0 001.303-.14 4.865 4.865 0 00.404-.103l.08-.023c.094-.03.145-.05.145-.05-.248-.355-1.482-1.661-4.076-2.995-.167-.085-.34-.172-.519-.257-.411-.197-.8-.42-1.163-.655-2.167-1.397-3.466-3.27-3.558-3.403.087.096 1.046 1.122 3.568 2.168.311.128.61.246.896.358.705.273 1.334.502 1.894.741 1.146.487 2 1.011 2.618 2.02 1.04 1.702 2.76 2.892 2.76 2.892a8.556 8.556 0 01-.64.072c-.184.014-.38.025-.579.033l-.197.008c-.527.018-1.038.021-1.322.021h-.23c.927 1.436 4.386 2.798 4.386 2.798s-1.89-.076-3.951-1.362c-1.81-1.13-4.133-2.099-6.797-2.38a14.82 14.82 0 00-1.315-.081 7.32 7.32 0 00-1.02.074c-1.01.137-2.018.454-2.896.803l-.164.066a18.966 18.966 0 00-1.294.59l-.094.046-.178.092a36.9 36.9 0 00-.39.208 7.815 7.815 0 00-.189.106l-.056.032a5.029 5.029 0 00-.183.107c-.024.014-.047.027-.066.04a.979.979 0 00-.047.028l-.038.023h.002l.009-.003a2.666 2.666 0 00.102-.019l.052-.01a.747.747 0 01.053-.01c.012-.001.023-.003.035-.007l.134-.023a7.18 7.18 0 01.27-.045c.035-.006.072-.01.11-.017l.053-.009.23-.034a24.152 24.152 0 011.605-.181l.166-.013.182-.013.282-.015h.01l.01-.001.21-.01a19.1 19.1 0 01.853-.013c.113 0 .226.004.339.007a8.53 8.53 0 011.71.246c1.888.456 3.935 1.476 5.984 2.572.522.278.996.492 1.424.653.095.036.187.07.277.101a7.965 7.965 0 001.171.31c.362.064.65.082.858.082.136 0 .238-.007.307-.016l.046-.005c.02-.002.033-.006.043-.007l.012-.002a3.594 3.594 0 01-.892.288 5.175 5.175 0 01-.956.079c-1.107 0-2.458-.236-4.493-.236-.32 0-.657.005-1.011.02-3.94.148-5.953 2.82-6.004 2.887a16.608 16.608 0 013.71-.836l.049-.001.045-.001a16.369 16.369 0 011.767.057l.19.019.094.01c.126.017.251.034.375.054a5.3 5.3 0 01.694.16c1.198.379 3.995 1.627 7.084 1.804 0 0-5.594.58-7.965 2.91a3.24 3.24 0 00.073-.023l.056-.017c.237-.07.78-.223 1.54-.384a19.262 19.262 0 01.322-.066c.075-.016.151-.03.23-.045l.236-.044c1.13-.202 2.56-.38 4.102-.38a18.374 18.374 0 012.328.147 14.502 14.502 0 011.886.375c.469.127.931.283 1.386.468.226.093.45.194.671.303a9.74 9.74 0 011.813 1.152l.103.083c.091.077.181.154.27.233h.001a33.38 33.38 0 011.754-1.502l.163-.129a22.473 22.473 0 00-.538-.941c-.25-.414-.509-.807-.78-1.17-2.047-2.736-5.871-4.74-5.99-4.801.086.013 3.456-.115 8.375.97 1.46.32 3.508 1.16 5.43 2.462.396.267.787.553 1.167.856-1.866.277-3.639 1.188-5.2 2.175a367.774 367.774 0 00-.367.244 25.577 25.577 0 00-1.592 1.172 32.986 32.986 0 00-1.805 1.551l-.692.658a4.092 4.092 0 01-.07.068c-1.3 1.253-2.915 2.237-4.72 2.512a7.852 7.852 0 01-1.157.086 8.305 8.305 0 01-1.858-.211 9.68 9.68 0 01-.902-.251 11.495 11.495 0 01-2.016-.898 14.16 14.16 0 01-1.6-1.048 17.015 17.015 0 01-.377-.293l-.125-.1a22.673 22.673 0 01-.766-.662 13.767 13.767 0 01-.635-.61 18.605 18.605 0 01-.428-.447c.403.487.846.94 1.308 1.372 2.209 2.074 4.914 3.514 7.696 3.514a7.773 7.773 0 00.851-.046 7.977 7.977 0 002.84-.866 9.76 9.76 0 00.841-.494c.556-.347 1.091-.795 1.602-1.246.216-.188.427-.379.634-.561l.122-.104a31.62 31.62 0 012.239-1.743c.37-.262.748-.511 1.131-.748l.002-.001a18.435 18.435 0 01.57-.339l.313-.174a15.699 15.699 0 012.43-1.089 12.1 12.1 0 01.369-.118c.123-.037.246-.07.37-.104 1.595-.427 3.234-.084 3.234-.084 0 .431-.524.755-.524.755.32.142.631.242.915.313.353.091.409.075.715.126-.313.313-.91.385-.91.385a1.89 1.89 0 00.502.342 2.945 2.945 0 00.731.24 5.076 5.076 0 00.523.074l.123.008a5.488 5.488 0 00.784-.002c.073-.004.138-.01.196-.016 0 0-.013.964-1.295 2.468 0 0 2.306-.442 2.86-1.929.303.685.013 1.726.001 1.776 1.312-.958 1.312-2.578 1.312-2.578.711.632.88 1.683.889 2.62-.006 1.133-.595 2.17-1.262 3.08-1.373 1.858-3.477 3.848-2.692 6.409-.585-2.563 1.606-4.321 3.114-6.075.81-.94 1.548-2.089 1.644-3.372.1-1.275-.139-2.778-1.193-3.618zm-12.779-9.952s-.037.052-.115.129a1.394 1.394 0 01-.15.133 2.385 2.385 0 01-.671.372c-.12.045-.25.084-.395.115a3.474 3.474 0 01-.739.076c-.47 0-1.03-.083-1.69-.305a9.802 9.802 0 01-1.568-.705 12.178 12.178 0 01-.717-.426 16.5 16.5 0 01-.768-.52l.17.064.058.022c.203.075.516.188.85.3l.1.033a16.107 16.107 0 00.454.141c.033.01.065.02.097.028a5.535 5.535 0 00.558.13c.07.012.132.018.184.018a.27.27 0 00.12-.02s-.656-1.966-1.261-2.773c-.604-.806-2.09-.984-2.771-1.588l.122.024.067.011c.16.028.415.066.74.094l.155.011a10.185 10.185 0 00.93.023l.148-.001a8.482 8.482 0 011.952.233c.938.228 1.933.652 2.715 1.407a21.916 21.916 0 00.86.785 9.874 9.874 0 00.923.706c.065.042.13.083.195.122.42.25.808.396 1.147.396a.932.932 0 00.57-.181c.81-.602.364-1.753.34-1.813.054.058 1.462 1.614-.504 3.099 0 0 1.347 1.613 2.394 2.369 0 0-1.437-.504-4.5-2.509zm9.044 8.125c-.357-.233-.774-.438-1.216-.524 0 0-.164.246-.104.511 0 0-.092-.05-.19-.147-.166-.165-.349-.465-.122-.886l.025-.044a.874.874 0 01.14-.175.825.825 0 01.573-.218 1.19 1.19 0 01.837.37 1.295 1.295 0 01.202.27c.032.06.06.12.083.186a1.856 1.856 0 10-3.476.598 1.205 1.205 0 01-.647-.32c-.23-.212-.43-.56-.441-1.111l-.001-.05a2.238 2.238 0 012.238-2.238s.027-.002.075-.002c.042 0 .1.002.172.01l.076.008a2.3 2.3 0 01.6.173 2.707 2.707 0 01.81.551 3.251 3.251 0 01.381.438c.516.701.97 1.821 1.139 3.602 0 0-.465-.553-1.154-1.002zm3.072 2.656l-.007-.004h.003s.002 0 .004.003v.001z"/></svg><svg viewBox="0 0 32 32" id="flag" xmlns="http://www.w3.org/2000/svg"><path d="M6 4h12.104l1.667 2.875h6.354v12.938H17.5l-1.653-2.875h-8.41V27H6V4zm18.688 14.375V8.312h-5.75l-1.654-2.874H7.438V15.5h9.228l1.668 2.875h6.354z"/></svg><svg viewBox="0 0 112 26" id="gate" xmlns="http://www.w3.org/2000/svg"><path fill-rule="evenodd" clip-rule="evenodd" d="M92.104 7.882h3.127v-3.13h-3.127v3.13zm-16.622 5.213a4.193 4.193 0 013.922-2.716 4.193 4.193 0 013.922 2.716h-7.844zm3.922-5.626a7.103 7.103 0 00-7.099 7.106 7.102 7.102 0 007.099 7.105c2.69 0 5.03-1.497 6.234-3.703l-2.623-1.274a4.188 4.188 0 01-3.611 2.067 4.193 4.193 0 01-4.052-3.121h8.104l-.001.005h2.968a7.103 7.103 0 00-7.019-8.184zm7.924 13.833h3.128v-3.13h-3.128v3.13zm4.776 0h3.127V9.258h-3.127v12.044zm11.856-2.532a4.193 4.193 0 01-4.191-4.195 4.193 4.193 0 014.191-4.195 4.193 4.193 0 014.191 4.195 4.193 4.193 0 01-4.191 4.195zm-.001-11.3c-3.92 0-7.1 3.18-7.1 7.105a7.102 7.102 0 007.1 7.105c3.921 0 7.1-3.18 7.1-7.105a7.103 7.103 0 00-7.1-7.106m-65.385 4.487v3.236h4.373a5.222 5.222 0 01-1.327 2.416c-.976.999-2.33 1.549-3.812 1.549a5.586 5.586 0 01-5.578-5.583 5.587 5.587 0 015.578-5.583c1.647 0 3.161.706 4.211 1.923l2.504-2.048a8.863 8.863 0 00-6.715-3.112c-4.859 0-8.811 3.957-8.811 8.82s3.953 8.82 8.81 8.82c2.36 0 4.534-.851 6.124-2.477 1.334-1.365 2.218-3.269 2.389-5.176.082-.93.09-1.855.041-2.785h-7.787zm15.93 6.815a4.194 4.194 0 01-4.192-4.196 4.194 4.194 0 014.191-4.196 4.193 4.193 0 014.192 4.196 4.194 4.194 0 01-4.192 4.196zm4.191-9.917a7.06 7.06 0 00-4.192-1.373 7.102 7.102 0 00-7.098 7.105 7.101 7.101 0 007.098 7.105 7.06 7.06 0 004.192-1.373v.984h2.906V7.87h-2.906v.983zm9.144-4.102h-2.906v3.13h-1.742v2.745h1.742v7.184c0 .742.093 1.366.278 1.856.182.485.46.864.79 1.16.336.301.73.535 1.196.668.474.134.996.185 1.549.185.572 0 1.082-.06 1.517-.177.4-.107.787-.26 1.152-.457v-2.212c-.573.248-1.11.338-1.72.366-.646.03-1.028-.154-1.346-.457-.333-.317-.51-.731-.51-1.426v-6.69h3.576V7.882h-3.576v-3.13zM13.547 19.94A6.936 6.936 0 016.614 13a6.937 6.937 0 016.933-6.94V.382C6.585.382.94 6.032.94 13c0 6.969 5.644 12.618 12.606 12.618S26.152 19.968 26.152 13H20.48a6.936 6.936 0 01-6.933 6.94z"/><path fill-rule="evenodd" clip-rule="evenodd" d="M13.547 13h6.933V6.06h-6.933V13z"/></svg><svg viewBox="0 0 9 9" id="geo" xmlns="http://www.w3.org/2000/svg"><path d="M1.504 4.566a.707.707 0 01-.371-.097.609.609 0 01-.27-.567c.01-.114.05-.22.117-.316a.702.702 0 01.301-.238l6.25-2.88a.97.97 0 01.496-.097.573.573 0 01.543.52c.021.145-.01.31-.093.492L5.605 7.609a.735.735 0 01-.246.317.65.65 0 01-.648.074.57.57 0 01-.246-.219.647.647 0 01-.094-.36l-.008-2.784c0-.042-.02-.063-.062-.063l-2.797-.008z"/></svg><svg viewBox="0 0 80 80" id="icons-home-section" xmlns="http://www.w3.org/2000/svg"><g clip-path="url(#mclip0_356_4887)"><mask id="ma" maskUnits="userSpaceOnUse" x="0" y="0" width="80" height="80"><path d="M0 0h80v80H0V0z"/></mask><g mask="url(#ma)"><path d="M65 32.212c2.246-1.306 3.981-2.827 5.159-4.522a9.831 9.831 0 001.281-2.532c.279-.842.42-1.724.417-2.61a8.248 8.248 0 00-.447-2.611 10.007 10.007 0 00-1.31-2.533c-1.196-1.696-2.948-3.217-5.208-4.522-2.26-1.304-4.892-2.314-7.823-3.002a37.543 37.543 0 00-4.376-.75 40.58 40.58 0 00-9.013 0c-1.47.164-2.928.414-4.368.75-2.923.688-5.543 1.698-7.789 3.003"/><path d="M69.1 29.104c-1.104-1.204-2.512-2.304-4.207-3.282-2.26-1.305-4.892-2.315-7.822-3.002-.351-.082-.706-.16-1.063-.232M65 44.912c2.245-1.305 3.98-2.826 5.158-4.522a9.843 9.843 0 001.281-2.532 8.23 8.23 0 00.417-2.61m-56.844-.045c-2.245 1.305-3.98 2.826-5.158 4.522a9.817 9.817 0 00-1.281 2.533 8.232 8.232 0 00-.418 2.61c.007.889.158 1.77.447 2.61.294.866.735 1.718 1.31 2.534 1.197 1.695 2.95 3.216 5.209 4.521 2.26 1.305 4.892 2.315 7.822 3.002a37.48 37.48 0 004.377.75 40.582 40.582 0 009.012 0 37.398 37.398 0 004.368-.75c2.923-.687 5.544-1.698 7.79-3.002"/><path d="M8.156 44.867v12.585c.007.889.158 1.77.447 2.61a9.99 9.99 0 001.31 2.534c1.197 1.695 2.949 3.217 5.209 4.521 2.26 1.305 4.892 2.315 7.822 3.002a37.39 37.39 0 004.377.75 40.601 40.601 0 009.012 0 37.405 37.405 0 004.369-.75c2.922-.687 5.543-1.698 7.788-3.002m-33.477-18.86c-1.598.928-2.937 1.966-4.001 3.098M37.4 48.257a7.027 7.027 0 00.757-3.182c0-3.907-3.191-7.081-7.098-7.062-3.731.018-6.778 2.91-7.013 6.585-.02.318.002.636.067.948.013.068.03.136.052.202.106.304.255.592.443.855.404.572.995 1.085 1.758 1.526.763.441 1.651.782 2.64 1.014.488.113.982.198 1.479.253a13.65 13.65 0 003.043 0c.496-.056.988-.14 1.474-.253.987-.233 1.872-.573 2.63-1.014l27.37-15.917m-49.989 2.99l27.77-16.137M48.49 54.53l16.511-9.62m6.857-9.664v-12.7M24.045 45.009l-.012 12.762m24.457 9.346l13.799-8.343v-12.29"/><path d="M32.391 38.131L53.87 25.617c.34-.198.665-.421.973-.666a3.168 3.168 0 001.188-2.459v-.014a7.063 7.063 0 10-8.605 6.893m-32.41 18.884l9.402-5.48m-6.445-9.292V20.759l13.553-7.876m24.527 9.712l-.022 14.733"/></g></g><defs><clipPath id="mclip0_356_4887"><path d="M0 0h80v80H0z"/></clipPath></defs></svg><svg viewBox="0 0 112 38" id="ledger" xmlns="http://www.w3.org/2000/svg"><path d="M95.654 35.453v2.37h16.128v-10.69h-2.35v8.32H95.654zm0-35.277v2.37h13.778v8.32h2.35V.176H95.654zm-8.318 18.336v-5.507h3.687c1.797 0 2.442.604 2.442 2.254v.976c0 1.696-.622 2.277-2.442 2.277h-3.687zm5.852.976c1.682-.441 2.857-2.022 2.857-3.904 0-1.185-.46-2.254-1.336-3.114-1.106-1.07-2.581-1.604-4.493-1.604h-5.184v16.267h2.304V20.65h3.456c1.774 0 2.489.744 2.489 2.603v3.88h2.35v-3.508c0-2.557-.6-3.533-2.443-3.811v-.326zm-19.4.534h7.097v-2.138h-7.097v-4.88h7.788v-2.138H71.438v16.267H81.92v-2.138h-8.133v-4.973zm-7.72.86v1.116c0 2.347-.852 3.114-2.994 3.114h-.507c-2.143 0-3.18-.698-3.18-3.928v-4.369c0-3.253 1.083-3.927 3.225-3.927h.46c2.098 0 2.766.79 2.789 2.974h2.535c-.23-3.207-2.35-5.228-5.53-5.228-1.544 0-2.834.488-3.802 1.418-1.452 1.37-2.258 3.694-2.258 6.948 0 3.137.692 5.46 2.12 6.901.967.953 2.304 1.465 3.617 1.465 1.383 0 2.65-.558 3.295-1.767h.322v1.534h2.12v-8.389h-6.244v2.138h4.033zm-20.321-7.878h2.512c2.373 0 3.664.604 3.664 3.858v4.276c0 3.253-1.29 3.857-3.664 3.857h-2.512v-11.99zm2.719 14.13c4.4 0 6.036-3.37 6.036-8.134 0-4.833-1.75-8.133-6.083-8.133h-4.977v16.267h5.024zm-16.152-7.112h7.097v-2.138h-7.097v-4.88h7.788v-2.138H29.963v16.267h10.485v-2.138h-8.134v-4.973zM18.72 10.867h-2.35v16.266h10.599v-2.138h-8.25V10.866zM.217 27.133v10.69h16.13v-2.371H2.566v-8.32H.217zm0-26.958v10.69h2.35v-8.32h13.78V.176H.216z"/></svg><svg viewBox="0 0 19 14" id="quotes" xmlns="http://www.w3.org/2000/svg"><path d="M8 6.5v7H1V6.4C1 1.6 5.5 1 5.5 1l.6 1.4s-2 .3-2.4 1.9c-.4 1.2.4 2.2.4 2.2H8zm10 0v7h-7V6.4C11 1.6 15.5 1 15.5 1l.6 1.4s-2 .3-2.4 1.9c-.4 1.2.4 2.2.4 2.2H18z"/></svg><svg viewBox="0 0 32 32" id="song" xmlns="http://www.w3.org/2000/svg"><path d="M25.06 16.917v-1.846H30v1.846h-4.94zm1.66 11.93l-3.954-3.58.953-1.462 3.953 3.577-.953 1.464zM23.6 8.04l-.952-1.462L26.602 3l.952 1.464-3.953 3.577zM6.06 27.001v-7.03H2v-7.953h8.177l6.06-4.331v16.614l-6.06-4.33H7.589V27h-1.53zm8.647-5.988V10.976l-4.1 2.889H3.528v4.26h7.077l4.1 2.89zm4.235.314V10.663c.512.572.924 1.324 1.237 2.256.313.931.47 1.957.468 3.075 0 1.119-.157 2.144-.468 3.076-.31.931-.723 1.685-1.237 2.257z"/></svg><svg viewBox="0 0 32 32" id="star" xmlns="http://www.w3.org/2000/svg"><path d="M15.704 3h.592l.766 2.777a9.905 9.905 0 009.547 7.268H29v.479l-2.05 1.415a9.905 9.905 0 00-3.838 11.076L24.034 29h-.605l-1.12-.925a9.905 9.905 0 00-12.618 0L8.57 29h-.606l.923-2.984A9.905 9.905 0 005.05 14.94L3 13.524v-.478h2.39a9.905 9.905 0 009.548-7.269L15.704 3z"/></svg><svg viewBox="0 0 11 8" id="subscribes" xmlns="http://www.w3.org/2000/svg"><path d="M5.129 7.723c-.33 0-.561-.051-.691-.153a.503.503 0 01-.196-.425c0-.25.077-.513.23-.79.154-.276.376-.533.665-.773.289-.242.636-.439 1.043-.59a3.933 3.933 0 011.37-.226 3.9 3.9 0 011.368.226c.409.151.758.348 1.047.59.289.24.51.497.664.773.154.277.23.54.23.79a.503.503 0 01-.195.425c-.13.102-.362.153-.695.153h-4.84zM7.55 4.078a1.44 1.44 0 01-.793-.23 1.757 1.757 0 01-.578-.625 1.815 1.815 0 01-.215-.883c0-.315.073-.602.219-.86.145-.26.338-.466.578-.617.24-.153.502-.23.789-.23.289 0 .553.075.793.226.24.151.43.356.574.614.146.255.219.543.219.863a1.79 1.79 0 01-.793 1.512c-.24.153-.504.23-.793.23zM.887 7.727c-.274 0-.466-.058-.578-.172C.197 7.443.14 7.284.14 7.078c0-.26.067-.526.203-.797.138-.273.333-.524.586-.754.255-.229.558-.415.91-.558a3.13 3.13 0 011.183-.215c.344 0 .655.045.934.137.281.088.527.2.738.336-.226.18-.42.381-.582.605a2.86 2.86 0 00-.37.688 1.882 1.882 0 00-.122.66c.005.21.06.393.164.547H.887zm2.136-3.563c-.25 0-.48-.066-.691-.2a1.49 1.49 0 01-.5-.546 1.572 1.572 0 01-.187-.766 1.512 1.512 0 01.69-1.289c.212-.133.441-.199.688-.199.248 0 .476.066.684.2a1.496 1.496 0 01.695 1.285c0 .28-.062.537-.187.769a1.49 1.49 0 01-.5.547 1.26 1.26 0 01-.692.2z" fill-opacity=".24"/></svg><svg viewBox="0 0 29 28" id="success" xmlns="http://www.w3.org/2000/svg"><path d="M8.944 13.306l4.167 4.167 6.945-6.944M14.5 26.5C7.596 26.5 2 20.903 2 14 2 7.096 7.597 1.5 14.5 1.5 21.404 1.5 27 7.097 27 14c0 6.904-5.597 12.5-12.5 12.5z"/></svg><svg viewBox="0 0 13 11" id="telegram" xmlns="http://www.w3.org/2000/svg"><path fill-rule="evenodd" clip-rule="evenodd" d="M11.033.584a.875.875 0 011.203.949l-1.323 8.025a1.153 1.153 0 01-1.687.832 34.092 34.092 0 01-2.27-1.338c-.396-.26-1.611-1.091-1.462-1.683.128-.505 2.17-2.406 3.337-3.536.458-.444.249-.7-.292-.291-1.343 1.013-3.499 2.555-4.212 2.99-.629.382-.956.447-1.348.382a8.938 8.938 0 01-1.92-.528c-.732-.303-.696-1.309 0-1.602l9.974-4.2z"/></svg><svg viewBox="0 0 50 50" id="title-sput" xmlns="http://www.w3.org/2000/svg"><path d="M38.709 39.202l-.419.39-.34.314m.759-.704l.328-.333.404-.423.312-.35.388-.456.295-.367.368-.485.274-.382.348-.514.252-.397.324-.54.228-.41.299-.563.201-.423.273-.585.24-.598.177-.44.212-.616.146-.448.18-.63.116-.457.15-.643.2-1.115.083-.658.05-.468.051-.663.017-.47.017-.665m-5.933 14.099l-.351.325-.408.38m0 0l-.363.306-.418.344-.372.288-.804.576m-9.495-25.836l.473.028.678.057.673.073.667.09.66.104.652.12.643.137.632.151.621.167.609.18.596.195.58.21.565.223.55.236.53.25.514.261.494.274.474.285.453.296.432.307.41.317.385.326.363.336.338.343.313.352.289.359.261.365.236.37.21.377.18.381.155.385.127.389.098.391.07.393.043.395.015.395-.012.37m0 0l-.003.189-.014.395-.042.557-.042.393-.07.552-.07.39-.03.159-.069.388-.125.54-.097.383-.152.53-.123.377-.178.517-.148.37-.202.502-.229.491-.17.355-.055.105m1.819-7.193l-.045.42-.07.393-.099.391-.127.389-.154.385-.182.38-.209.377-.235.371-.262.366-.288.358-.313.352-.339.343-.362.336-.386.326-.41.317-.431.307-.454.296-.474.285-.203.113m3.224.688l-.226.148-.564.34-.588.325-.611.312-.633.296-.653.281-.673.266-.692.25-.708.232-.725.215-.74.198-.752.18-.766.162-.776.143-.786.125-.794.106-.801.088-.806.067-.811.049-.814.03-.815.009-.814-.01-.814-.029-.81-.049-.807-.067-.801-.087-.794-.107-.786-.125-.777-.143-.765-.162-.753-.18-.74-.198-.724-.215-.709-.233-.691-.249-.673-.266-.653-.28-.633-.297-.611-.312-.588-.326-.565-.34-.226-.147m29.468 0l.009-.005.305-.2.514-.365.487-.377.46-.39.431-.398.403-.41.373-.418.343-.427.312-.434.28-.442.25-.448.216-.454.183-.459.151-.462.117-.466.084-.468.051-.47.017-.47m-34.454 7.563l-.008-.005-.305-.2-.514-.365-.487-.377-.46-.39-.432-.398-.402-.41-.373-.418-.343-.427-.312-.434-.28-.442-.25-.448-.216-.454-.183-.459-.151-.462-.118-.466-.084-.468-.05-.47-.017-.47m4.985 7.563l-.055-.104-.17-.356-.228-.491-.202-.503-.148-.369-.178-.517-.123-.377-.152-.53-.096-.383-.126-.54-.168-.936-.07-.553-.043-.393-.042-.557-.014-.395-.014-.56m-3.156 0l.017-.47.05-.47.084-.467.118-.466.15-.462.184-.459.217-.454.248-.448.281-.441.312-.435.343-.427.373-.419.402-.409.432-.4.46-.387.487-.378.514-.365.54-.353.564-.34.588-.325.61-.312.634-.296.653-.282.673-.265.691-.25.709-.232.725-.215.74-.198.752-.18.765-.162.777-.144.786-.125.794-.106.8-.087.807-.067.81-.05.815-.028.814-.01.815.01.814.029.81.049.807.067.801.087.794.106.786.125.776.144.766.162.752.18.74.198.725.215.708.233.692.249.673.265.653.282.633.296.61.312.59.326.563.34.54.352.514.365.487.378.46.388.431.4.403.408.373.419.343.427.312.434.28.442.249.448.216.454.184.459.15.462.118.466.084.468.05.47.018.47m-39.439 0l.017.665.017.47.05.663.05.468.084.658.2 1.115.15.643.115.456.181.631.146.448.212.616.176.44.241.598.272.585.202.423.299.563.227.41.325.54.252.397.347.514.274.382.37.485.294.367.387.455.313.35.404.424.328.333m24.857 2.22l-.397.259-.415.26-.399.24-.416.23-.398.21-.414.212-.428.2-.376.162-.067.03-.355.153-.435.171-.447.161-.759.249-.445.132-.454.121-.463.111-.47.1m7.138-3.002l.378-.268m-7.516 3.27l-.477.088-.186.036m.663-.124l-.212.04-.451.084m0 0l-.457.073m0 0l-.461.061-.466.05-.468.04-.471.029-.473.016-.474.006-.473-.006-.473-.017-.47-.028-.47-.04-.465-.05-.462-.061m5.626 0l.16-.032m-5.785.032l-.457-.073m.457.073l-.16-.032m-.297-.041l-.187-.036-.476-.089m.663.125l-.451-.083-.212-.041m0 0l-.47-.1-.463-.11-.454-.122-.445-.132-.301-.099-.458-.15-.447-.16-.435-.172-.355-.154-.067-.029-.376-.161-.428-.201-.414-.211-.398-.211-.416-.23-.4-.24-.414-.26-.398-.26m0 0l-.378-.268m.378.268l-.803-.576-.372-.288-.418-.344-.363-.307m0 0l-.408-.38-.351-.324m.759.704l-.34-.315-.42-.39m16.216-21.71l.323.035.54.072.535.085.527.098.52.11.513.122.502.135.493.146.482.158.47.17.458.18.444.192.43.201.416.212.4.222.384.23.367.24.349.249.331.257.313.264.293.271.274.278.254.285.233.29.212.296.19.3.17.305.147.309.125.311.103.315.08.316.057.319.034.32.011.32m0 0l-.01.319-.035.32-.058.318-.08.316-.102.315-.125.311-.147.309-.17.305-.19.3-.212.296-.233.29-.254.285-.274.278-.293.271-.313.265-.331.256-.35.249-.366.24-.384.23-.4.222-.415.212-.43.201-.004.002m5.176-6.11l-.006.278-.005.173-.011.32-.035.45-.034.32-.057.447-.056.316-.023.128-.057.314-.101.437-.079.31-.123.429-.1.305-.143.419-.12.299-.164.407-.185.397-.137.288-.203.383-.155.279-.105.175m-3.277-.764l-.44.19-.458.18-.47.17-.483.158-.492.146-.503.135-.512.122-.52.11-.528.098-.535.085-.54.072-.545.06-.548.045-.551.033-.554.02-.554.007-.554-.007-.553-.02-.551-.033-.549-.046-.544-.059-.54-.072-.535-.085-.528-.098-.52-.11-.512-.122-.503-.135-.493-.146-.482-.158-.47-.17-.457-.18-.44-.19m16.464 0l.026-.035.143-.198.18-.268.132-.206.168-.28.119-.214.155-.293.105-.22.141-.304.126-.311.091-.229.11-.32.077-.233.094-.328.06-.237.077-.335.104-.58.044-.341.026-.244.026-.345.009-.244.008-.346M16.69 31.214l-.004-.002-.43-.201-.415-.212-.4-.222-.384-.23-.367-.24-.35-.249-.33-.256-.313-.265-.294-.271-.274-.278-.253-.285-.233-.29-.212-.296-.191-.3-.17-.305-.146-.309-.125-.311-.103-.315-.08-.316-.057-.319-.034-.319-.012-.32m5.177 6.111l-.026-.035-.143-.198-.18-.268-.131-.206-.169-.28-.118-.214-.156-.293-.105-.22-.14-.304-.126-.311-.092-.229-.11-.32-.076-.233-.094-.328-.06-.237-.078-.335-.104-.58-.043-.341-.027-.244-.026-.345-.009-.244-.003-.133-.005-.213m-3.156 0l.012-.32.034-.32.057-.318.08-.316.103-.315.125-.311.147-.309.169-.305.19-.3.213-.296.233-.29.253-.285.274-.278.294-.271.312-.264.332-.257.35-.248.366-.24.384-.231.4-.222.415-.212.43-.201.445-.192.457-.18.47-.17.482-.158.493-.146.503-.135.512-.122.52-.11.528-.098.535-.085.54-.072.323-.035m-10.98 7.612l.01.452.012.32.034.45.035.32.057.447.136.758.101.437.079.31.123.429.1.305.143.419.12.299.164.407.185.397.137.288.203.383.155.279.105.175m0 0l.291.161.513.262.532.249.549.236.565.223.58.21.596.195.609.18.62.167.633.151.643.136.652.12.66.106.667.089.673.073.678.057.68.04.684.025.685.008.684-.008.684-.024.68-.041.678-.057.673-.073.667-.09.66-.104.652-.12.643-.137.633-.151.62-.166.61-.181.595-.196.58-.209.566-.223.549-.236.531-.25.513-.261.29-.16m-23.018 0l-.203-.114-.474-.285-.453-.296-.432-.307-.41-.317-.385-.326-.363-.336-.338-.343-.314-.352-.288-.358-.261-.366-.236-.37-.209-.377-.182-.381-.154-.385-.127-.389-.098-.391-.07-.393-.043-.395-.014-.395m0 0l.014-.395.042-.395.07-.393.1-.391.126-.389.154-.384.182-.382.209-.376.236-.371.262-.365.288-.36.313-.35.338-.344.363-.336.386-.326.41-.317.43-.307.454-.296.474-.285.494-.274.513-.262.532-.249.549-.236.565-.223.58-.21.596-.195.609-.18.62-.167.633-.151.643-.136.652-.12.66-.106.667-.089.673-.073.678-.057.473-.028m3.153 3.67l.11.009.417.045.413.055.408.065.404.075.398.084.391.094.385.103.377.111.368.121.36.13.35.138.34.146.328.154.318.162.306.17.294.176.28.184.267.19.254.196.239.202.224.208.21.212.194.218.178.222.162.226.146.23.13.233.112.236.095.238.079.24.06.243.044.243.027.244.008.245m0 0l-.008.245-.027.244-.043.243-.061.242-.079.241-.095.238-.113.236-.13.233-.145.23-.162.226-.178.222-.195.218-.209.213-.224.207-.24.202-.253.196-.267.19-.28.184-.294.176-.306.17-.318.162-.328.154-.34.146-.35.138-.36.13-.368.12-.086.026m0 0l-.291.087-.385.102-.391.094-.398.084-.404.075-.408.065-.413.055-.417.045-.42.036-.42.025-.424.015-.424.005-.423-.005-.423-.015-.422-.025-.42-.036-.416-.045-.413-.055-.409-.065-.403-.075-.398-.084-.392-.093-.384-.103-.29-.087m9.588 0l.018-.017.025-.022.126-.117.118-.12.145-.153.113-.126.14-.164.105-.132.133-.174.099-.138.125-.185.09-.143.117-.194.082-.148.108-.203.072-.152.098-.21.15-.374.077-.222.053-.161.065-.227.041-.164.054-.232.03-.166.012-.068.03-.167.03-.237.018-.169.019-.238.005-.17.003-.091.003-.148m-11.893 5.232l-.064-.032m.064.032l-.018-.017-.046-.015m0 0l-.105-.125-.118-.12-.146-.152-.112-.126-.14-.164-.106-.131-.132-.175-.099-.138-.125-.185-.09-.143-.117-.194-.082-.148-.108-.203-.073-.152-.098-.21-.086-.216-.064-.158-.076-.222-.053-.161-.065-.227-.041-.164-.054-.232-.03-.166-.012-.068-.03-.167-.03-.237-.018-.169-.018-.238-.007-.17v-.08m2.235 5.04l-.39-.113-.36-.13-.35-.138-.34-.146-.328-.154-.318-.162-.306-.17-.294-.176-.28-.184-.267-.19-.254-.196-.239-.202-.224-.207-.21-.213-.193-.218-.179-.222-.162-.226-.146-.23-.129-.233-.113-.236-.095-.238-.078-.24-.062-.243-.043-.243-.027-.244-.008-.245m3.16.159l-.006-.159.006-.17.018-.168.03-.17.043-.166.054-.167.067-.165.078-.163.089-.162.1-.159.113-.156.124-.154.134-.15.145-.148.155-.144.166-.14.175-.135.185-.132.195-.127.203-.122.211-.117.22-.113.228-.106.235-.102.242-.095.25-.09.255-.084.26-.077.267-.071.27-.065.276-.058.28-.052.283-.045.285-.038.289-.032.29-.024.292-.018.293-.01.293-.004.294.004.293.01.291.018.29.024.289.032.286.038.283.045.28.052.275.058.271.065.266.07.26.078.256.084.25.09.241.095.235.102.228.106.22.113.212.117.203.122.194.127.185.132.176.135.165.14.156.144.145.147.134.15.123.155.113.156.1.16.09.16.078.164.066.165.054.166.043.168.03.169.018.169.006.17m-14.193.158l.02.18.03.168.042.168.054.166.067.165.078.163.089.162.1.159.113.157.124.153.134.15.145.148.155.144.166.14.175.136.185.13.195.128.203.122.211.117.22.113.228.106.235.102.242.095.25.09.255.084.26.077.267.071.27.065.276.059.28.051.283.045.285.038.289.032.29.024.292.017.293.011.293.004.294-.004.293-.01.291-.018.29-.024.289-.032.286-.038.283-.045.28-.051.275-.059.271-.065.266-.07.26-.078.256-.084.25-.09.241-.095.235-.102.228-.106.22-.113.212-.117.203-.122.194-.127.185-.131.176-.136.165-.14.156-.144.145-.147.134-.15.123-.154.113-.157.1-.16.09-.16.078-.164.066-.165.054-.166.043-.168.03-.168.018-.17.006-.169m-17.352 0l.008-.245.027-.244.043-.243.062-.242.078-.24.095-.24.113-.235.13-.233.145-.23.162-.226.179-.222.193-.218.21-.212.224-.208.24-.202.253-.196.267-.19.28-.184.294-.176.306-.17.317-.162.33-.154.34-.146.35-.138.359-.13.368-.12.377-.112.385-.103.391-.094.398-.085.404-.074.409-.065.412-.055.417-.045.11-.01m3.596-3.17l.009.011m0 0l.052.084.05.085.046.088.042.09.038.09.006.015.034.093.031.094.027.096.022.096.019.097.014.098.002.01v.007l.01.098.007.099.002.099-.002.099-.006.099-.01.098-.015.098-.019.097-.022.097-.027.095-.03.094-.035.093-.038.092-.043.09-.046.088-.05.085-.053.085-.056.081-.06.08-.064.077-.066.074-.07.071-.072.069-.075.065-.078.062-.08.06-.084.055-.085.053-.087.049-.09.045-.09.042-.093.038-.095.034-.095.03-.097.026-.098.022-.098.019-.1.014-.1.01-.1.006-.1.002-.1-.002-.101-.006-.1-.01-.1-.014-.098-.019-.098-.022-.097-.026-.095-.03-.095-.035-.092-.037-.091-.042-.09-.045-.087-.05-.085-.052-.083-.055-.08-.06-.079-.062-.075-.065-.072-.069-.07-.071-.066-.074-.063-.077-.06-.08-.057-.081-.053-.084-.05-.086-.046-.089-.042-.09-.038-.09-.035-.094-.03-.094-.027-.095-.023-.097-.019-.097-.014-.098-.01-.098-.007-.1-.002-.098.002-.099.006-.099.01-.098.002-.007.001-.01.014-.098.019-.097.023-.096.026-.096.03-.094.035-.093.006-.015.038-.09.043-.09.045-.088.05-.085.053-.084.056-.082.009-.01.051-.069.008-.01.063-.077.066-.073.069-.07.072-.069.075-.065.077-.062.08-.059.082-.055.008-.005.077-.047.007-.005.086-.048.088-.045.09-.04.091-.038.094-.034.094-.03.095-.025.097-.022.097-.018.098-.014.099-.01.099-.007.099-.001.098.001.1.006.098.01.098.015.097.018.097.022.095.026.095.03.093.033.091.037.09.041.088.045.086.048.008.005.076.047.008.005.082.055.08.059.078.062.074.065.072.068.07.07.065.074.063.077.008.01.052.068.008.011.056.082zm-2.027 5.853l-.13.003-.127.008-.128.013-.128.018-.126.024-.125.028-.124.034-.123.038-.12.044-.12.049-.116.053-.115.058-.111.063-.01.005-.1.062-.01.006-.107.072-.104.076-.1.08-.097.085-.093.088-.09.092-.086.096-.081.099-.01.014-.068.088-.01.014-.074.106-.069.109-.064.111-.06.114-.054.116-.05.119-.007.019-.045.12-.04.123-.034.123-.03.125-.024.127-.019.127-.002.022-.014.127-.008.129-.003.128.003.129.008.128.014.128.019.127.024.126.029.126.035.124.04.122.044.12.05.12.055.116.06.114.064.112.07.109.073.106.078.103.082.1.086.096.09.093.095.09.097.084.102.081.104.077.108.073.11.068.114.063.116.059.118.054.12.05.123.043.124.04.126.034.127.029.128.024.13.018.129.013.13.008.13.003.13-.003.131-.008.13-.013.129-.018.128-.024.127-.03.126-.033.124-.04.123-.044.12-.05.118-.053.116-.059.114-.063.11-.068.108-.073.105-.077.1-.08.098-.086.095-.089.09-.093.086-.096.082-.1.078-.103.074-.106.069-.109.065-.112.059-.114.055-.117.05-.118.045-.121.04-.122.034-.124.03-.126.024-.126.018-.127.014-.128.008-.128.003-.129-.003-.128-.008-.129-.014-.127-.002-.022-.019-.127-.024-.127-.03-.125-.034-.123-.04-.123-.044-.12-.008-.02-.05-.118-.055-.116-.06-.114-.063-.111-.07-.109-.072-.106-.078-.102-.01-.014-.082-.099-.086-.096-.09-.092-.093-.088-.097-.084-.1-.08-.104-.077-.107-.072-.01-.006-.1-.062-.01-.005-.111-.063-.115-.058-.116-.053-.12-.05-.12-.043-.123-.038-.123-.034-.126-.028-.126-.024-.127-.018-.128-.013-.129-.008-.128-.003zm1.204-10.996l-.05.048-.054.046-.054.043-.057.042-.058.04-.06.036-.061.034-.063.032-.063.03-.066.026-.065.024-.067.02-.069.019-.068.016-.07.013-.069.01-.07.007-.07.004-.07.002-.071-.002-.07-.004-.07-.007-.07-.01-.07-.013-.068-.016-.068-.018-.067-.021-.066-.024-.065-.027-.064-.03-.063-.03-.061-.035-.06-.037-.058-.039-.056-.042-.055-.043-.053-.046-.05-.048-.05-.05-.046-.052-.044-.054-.042-.056-.04-.057-.037-.059-.035-.06-.032-.062-.03-.063-.027-.064-.024-.066-.022-.066-.018-.066-.016-.068-.013-.068-.01-.07-.008-.068-.004-.07-.002-.069.002-.07.004-.068.008-.07v-.004l.001-.007.01-.069.013-.068.016-.067.019-.067.021-.067.024-.064.004-.01.027-.065.03-.063.032-.061.035-.06.037-.059.04-.057.005-.007.036-.048.006-.008.044-.053.046-.052.049-.05.05-.047.053-.046.054-.043.056-.041.057-.04.006-.003.054-.033.005-.003.06-.034.062-.031.063-.029.064-.026.066-.024.066-.02.067-.019.067-.015.069-.013.068-.01.07-.007.069-.004.07-.001.069.001.07.004.068.007.069.01.068.013.068.015.067.018.066.021.065.024.064.026.063.029.062.031.06.034.006.003.053.033.006.004.058.039.056.04.054.044.052.046.05.047.05.05.045.052.045.053.005.008.036.047.006.008.04.057.037.059.035.06.032.061.03.063.026.064.004.01.024.066.022.066.019.067.015.067.014.068.01.069v.011l.008.07.005.069v.139l-.005.069-.007.069-.01.069-.013.068-.016.068-.019.066-.021.067-.024.065-.027.064-.03.063-.032.061-.035.061-.037.059-.04.057-.042.056-.045.054-.046.052-.049.05z"/></svg><svg viewBox="0 0 12 13" id="twitter" xmlns="http://www.w3.org/2000/svg"><g clip-path="url(#vclip0_356_5042)"><mask id="va" maskUnits="userSpaceOnUse" x="0" y="0" width="12" height="13"><path d="M0 .162h12v12H0v-12z"/></mask><g mask="url(#va)"><path d="M9.45.725h1.84L7.27 5.33 12 11.6H8.297L5.395 7.799 2.078 11.6H.236l4.3-4.929L0 .725h3.797L6.417 4.2 9.45.725zm-.647 9.771h1.02L3.24 1.771H2.146l6.657 8.725z"/></g></g><defs><clipPath id="vclip0_356_5042"><path transform="translate(0 .162)" d="M0 0h12v12H0z"/></clipPath></defs></svg><svg viewBox="0 0 15 12" id="youtube" xmlns="http://www.w3.org/2000/svg"><path d="M6 8.25L9.893 6 6 3.75v4.5zm8.67-5.873c.098.353.165.826.21 1.426.052.6.075 1.117.075 1.567L15 6c0 1.643-.12 2.85-.33 3.623-.188.675-.623 1.11-1.297 1.297-.353.098-.998.165-1.988.21-.975.052-1.867.075-2.692.075L7.5 11.25c-3.143 0-5.1-.12-5.873-.33-.674-.188-1.11-.623-1.297-1.297C.232 9.27.165 8.798.12 8.197.068 7.598.045 7.08.045 6.63L0 6c0-1.643.12-2.85.33-3.623.187-.674.623-1.11 1.297-1.297.353-.098.998-.165 1.988-.21A49.987 49.987 0 016.307.795L7.5.75c3.143 0 5.1.12 5.873.33.675.188 1.11.622 1.297 1.297z"/></svg></svg>