<svg width="30" height="30" viewBox="0 0 30 30" fill="none" xmlns="http://www.w3.org/2000/svg">
<path d="M15 0.00488281C6.7164 0.00488281 0 6.72128 0 15.0049C0 23.2885 6.7164 30.0049 15 30.0049C23.2836 30.0049 30 23.2885 30 15.0049C30 6.72128 23.2836 0.00488281 15 0.00488281ZM22.3668 10.2816L19.9044 21.882C19.7232 22.7052 19.2336 22.9048 18.5496 22.5172L14.7996 19.7545L12.9924 21.4971C12.8172 21.7227 12.546 21.8656 12.2424 21.8656C12.24 21.8656 12.2388 21.8656 12.2364 21.8656L12.5028 18.0482L19.4532 11.7711C19.7532 11.5047 19.386 11.3535 18.9876 11.6199L10.4016 17.027L6.70203 15.8727C5.90163 15.6195 5.88002 15.0721 6.87122 14.6797L21.3288 9.10684C22.0008 8.86204 22.5864 9.267 22.3692 10.2834L22.3668 10.2816Z" fill="#B71C1C"/>
</svg>
