<svg width="30" height="30" viewBox="0 0 30 30" fill="none" xmlns="http://www.w3.org/2000/svg">
<path d="M15 0C23.2843 0 30 6.71573 30 15C30 23.2843 23.2843 30 15 30C6.71573 30 0 23.2843 0 15C0 6.71573 6.71573 0 15 0ZM14.9285 18.7582C14.9267 19.279 14.7612 19.7867 14.4563 20.209C14.1513 20.6311 13.7219 20.947 13.2281 21.1125C12.7343 21.278 12.2013 21.2844 11.7035 21.1313C11.2057 20.978 10.7684 20.6728 10.4531 20.2582C10.1331 19.8369 9.95509 19.3247 9.9457 18.7957C9.93642 18.2666 10.0964 17.748 10.4016 17.3156C10.7068 16.8832 11.142 16.5584 11.6438 16.3898C12.1454 16.2214 12.6875 16.2177 13.1918 16.3781V13.3664C12.067 13.2109 10.922 13.4108 9.91641 13.9383C8.91089 14.4658 8.09464 15.294 7.5832 16.3078C7.07196 17.3214 6.8909 18.4695 7.06406 19.5914C7.23738 20.7136 7.75653 21.7545 8.55 22.5668C9.30659 23.3409 10.277 23.8722 11.3367 24.0926C12.3965 24.3129 13.4983 24.2115 14.5008 23.8031C15.5033 23.3946 16.3623 22.6964 16.9664 21.798C17.5703 20.8998 17.8933 19.8418 17.8934 18.7594V12.7477C19.0912 13.604 20.5271 14.0639 21.9996 14.0613V11.1152C21.7098 11.1156 21.4207 11.086 21.1371 11.0262C20.2778 10.8423 19.5 10.3883 18.9164 9.73125C18.3329 9.07421 17.9744 8.24843 17.8934 7.37344V6.99375H14.9285V18.7582Z" fill="#B71C1C"/>
</svg>
