<svg width="30" height="30" viewBox="0 0 30 30" fill="none" xmlns="http://www.w3.org/2000/svg">
<path d="M15 0.00488281C6.708 0.00488281 0 6.72488 0 15.0049C0 23.2969 6.708 30.0048 15 30.0048C23.28 30.0048 30 23.2969 30 15.0049C30 6.72488 23.28 0.00488281 15 0.00488281ZM18.036 22.5048L13.944 16.6849L8.82001 22.5048H7.5L13.356 15.8449L7.5 7.50488H11.964L15.84 13.0249L20.688 7.50488H22.02L16.428 13.8649L22.5 22.5048H18.036Z" fill="#B71C1C"/>
<path d="M20.688 21.5809H18.66L14.616 15.9289L14.028 15.0889L9.3 8.48889H11.34L15.144 13.8169L15.732 14.6449L20.688 21.5809Z" fill="#B71C1C"/>
</svg>
