<svg width="30" height="30" viewBox="0 0 30 30" fill="none" xmlns="http://www.w3.org/2000/svg">
<path d="M13.002 17.8939L17.912 15.011L13.002 12.1279V17.8939Z" fill="#B71C1C"/>
<path d="M15 0.00488281C6.715 0.00488281 0 6.71988 0 15.0049C0 23.2899 6.715 30.0049 15 30.0049C23.285 30.0049 30 23.2899 30 15.0049C30 6.71988 23.285 0.00488281 15 0.00488281ZM22.5 17.6888C22.5 20.2728 19.916 20.2728 19.916 20.2728H10.084C7.49998 20.2728 7.5 17.6888 7.5 17.6888V12.3279C7.5 9.74388 10.084 9.7439 10.084 9.7439H19.916C22.5 9.7439 22.5 12.3279 22.5 12.3279V17.6888Z" fill="#B71C1C"/>
</svg>
